<svg preserveAspectRatio="none" width="100%" height="100%" overflow="visible" style="display: block;" viewBox="0 0 276.253 21.7701" fill="none" xmlns="http://www.w3.org/2000/svg">
<path id="Vector" fill-rule="evenodd" clip-rule="evenodd" d="M61.7692 14.9958C60.8881 14.9958 61.7767 13.1324 61.8967 12.5906C62.0972 11.687 62.4103 10.9352 62.6128 10.0672C63.2352 10.2341 63.0515 10.564 63.2464 11.2651C64.4463 15.5714 64.8906 14.9958 61.7692 14.9958ZM212.747 12.823H220.216V14.3172H212.747V12.823ZM78.8534 8.51119C78.8534 7.30763 79.1871 6.25966 80.4019 6.25966C84.1045 6.25966 84.7663 11.4226 84.7663 14.2853C84.7663 21.6773 78.8534 22.6034 78.8534 19.2139V8.51119ZM98.7066 17.1705L98.1442 17.088C97.548 18.3422 97.7636 20.0294 95.7052 20.7174C93.2587 21.5367 92.7844 19.9001 92.7919 17.806C92.7975 16.3981 92.7938 14.9883 92.7938 13.5804C96.7944 12.6487 95.4859 15.5001 96.7363 15.8338C97.1112 15.0502 96.8769 11.8201 96.8769 10.624C96.262 10.6746 96.3988 10.7309 96.2151 11.2314C96.0726 11.6176 96.0164 11.7788 95.7821 12.0656C95.3059 12.6487 94.7678 12.6056 93.7686 12.6093C92.4695 12.6149 92.7788 12.39 92.7919 11.0477C92.82 8.02752 92.3513 6.95331 93.688 6.72459C94.9872 6.5015 96.4345 6.98705 97.0906 8.29747C97.4506 9.01549 97.3981 9.72038 98.1442 9.92098C98.2904 9.29295 98.5079 6.58961 98.1442 6.04782C97.2275 5.86972 92.5257 5.98033 90.9622 5.97658C89.7661 5.97471 89.5168 5.81348 88.8494 6.25966C89.1681 6.69272 89.0181 6.48463 89.5486 6.6871C89.9311 6.83145 89.6368 6.6796 89.9386 6.86145C90.0117 6.90456 90.1317 7.01892 90.2592 7.10328V18.9327C90.276 21.5123 89.7924 20.4362 89.0612 21.1018C88.7725 21.3642 89.035 21.5011 89.2956 21.5854L96.4326 21.6286C97.4524 21.7429 97.7711 21.9154 98.7066 21.4655V17.1705ZM74.6278 6.82208C75.4489 7.21577 76.4594 6.46776 76.4594 7.80817V19.6357C76.4594 21.0793 75.6664 20.9218 75.1846 21.038C74.4985 21.203 75.0009 20.7606 74.6278 21.4655C75.837 21.7485 78.2141 21.5742 79.5771 21.7279C81.2437 21.9154 82.9534 21.4486 83.9208 20.9012C87.3252 18.9777 88.2064 13.6367 86.8959 10.1853C86.0148 7.86817 83.6133 5.69537 81.2474 5.69537C79.7533 5.69537 76.4669 5.55852 75.0909 6.15843C74.6803 6.33653 74.6709 6.31215 74.6278 6.82208ZM141.512 5.76849C141.051 6.03282 140.981 6.34215 140.835 6.8502L138.377 14.5309C138.177 15.1083 138.274 15.3858 137.851 15.6951C137.074 15.1252 135.164 6.75271 134.191 5.76849C133.518 5.63726 132.778 5.70287 132.076 5.69725C131.072 5.68788 130.804 5.5004 130.389 6.12093C130.757 6.62336 131.104 6.52212 131.797 6.68335C132.043 7.73694 131.735 12.7874 131.655 14.2872C131.606 15.2002 131.6 19.4408 131.353 20.0388C130.995 20.9012 130.354 20.3219 130.106 20.9049C130.067 20.9968 129.714 20.7381 130.151 21.1561C130.457 21.4505 131.059 21.3305 131.797 21.3286C132.742 21.323 133.276 21.3661 134.049 21.1861C133.998 20.5618 134.047 20.7549 133.511 20.5993C132.884 20.4175 133.149 20.5412 132.641 20.2019C132.641 17.7779 132.371 11.1283 132.781 9.35856C133.449 9.53666 133.728 11.0627 133.991 12.0919L136.319 19.7613C136.505 20.3163 136.565 20.8618 137.007 21.1861C138.147 20.3519 140.171 9.786 141.231 9.07735C141.478 9.5929 141.572 19.4839 141.371 20.3425C140.942 20.4419 139.907 20.5843 139.77 20.9986C139.602 21.5161 140.901 21.3286 141.512 21.3267C142.262 21.3248 143.015 21.323 143.765 21.3286C145.205 21.3361 145.393 21.5104 145.454 20.7643C143.91 20.7306 144.041 19.7801 144.047 18.2297C144.052 16.7149 143.9 15.6913 143.906 14.2872C143.912 12.9786 143.928 11.6457 143.912 10.339C143.895 8.99862 143.574 7.96565 143.906 6.54274C144.328 6.44338 144.708 6.29903 145.173 6.26154C145.104 5.42542 144.59 5.68788 143.627 5.69725C142.925 5.70287 142.185 5.63726 141.512 5.76849ZM183.192 16.2575V20.2019C181.666 21.2217 182.017 20.3331 181.925 21.1861C182.534 21.4804 186.524 21.4804 187.135 21.1861C186.736 19.6957 185.721 22.2135 185.725 18.2297L185.731 7.11078C185.841 6.479 186.548 6.39652 187.135 6.26154C187.09 5.74037 187.187 6.05532 186.994 5.76849C186.111 5.59789 182.502 5.5604 181.925 5.83785C182.019 6.69647 181.953 6.0272 183.192 6.68335V16.2575ZM180.234 16.1881C179.462 16.0907 179.422 16.8649 179.27 17.8285C179.152 18.5728 178.939 19.317 178.571 19.8045C177.523 21.1917 176.151 21.3248 174.983 20.1025C174.147 19.227 173.714 17.7535 173.414 16.3194C172.949 14.0885 172.84 9.32669 174.595 7.09953C175.48 5.97658 177.268 5.66725 178.187 7.04142C178.567 7.60945 178.742 8.24498 178.986 8.918C179.171 9.43355 180.02 10.864 180.108 9.23858C180.318 5.41979 179.842 6.01408 178.404 5.48541C177.683 5.34668 176.764 5.34855 176.012 5.41792C174.203 5.58477 172.626 7.05079 171.702 8.57118C169.948 11.4564 170.083 17.0505 172.874 19.9582C173.333 20.4362 173.663 20.7549 174.272 21.0943C175.06 21.5311 175.18 21.5142 176.228 21.6754C177.379 21.8498 179.465 21.4973 180.118 20.7887C180.517 20.3537 180.377 19.2945 180.375 18.5109C180.375 17.8229 180.53 16.6287 180.234 16.1881ZM110.112 5.76849C109.018 6.3234 108.714 6.54274 107.893 7.42011C107.274 8.08001 106.772 9.02861 106.466 9.93785C105.724 12.1463 105.774 14.7465 106.451 16.9624C106.983 18.1566 107.375 19.0527 108.243 19.9582C109.194 20.9462 109.882 21.4392 111.575 21.696C112.851 21.891 114.934 21.3886 115.487 20.7887C115.918 20.3181 115.83 16.5256 115.603 16.1881C114.345 16.0288 115.054 18.2203 113.92 19.7838C113.549 20.2956 113.131 20.8168 112.349 20.9012C108.138 21.3511 107.447 10.2959 109.964 7.09953C110.823 6.01033 112.677 5.63351 113.556 7.04142C113.744 7.34325 115.339 11.7957 115.478 9.23858C115.5 8.82989 115.502 6.89332 115.437 6.56899C115.262 5.69537 114.563 5.73849 113.774 5.48541C113.149 5.36543 112.446 5.40479 111.794 5.40854C110.855 5.41417 110.917 5.59039 110.112 5.76849ZM156.438 16.8912L155.876 16.8068C155.317 17.986 155.443 19.8438 153.429 20.4306C150.882 21.173 150.516 19.6376 150.524 17.5267C150.529 16.1188 150.524 14.709 150.524 13.3011C151.409 13.0949 152.605 13.0068 153.231 13.5523C153.917 14.1503 153.574 15.3164 154.466 15.5545C154.843 14.7709 154.607 11.5389 154.607 10.3447C153.758 10.4159 154.164 10.9089 153.512 11.7826C153.028 12.4293 152.546 12.3244 151.498 12.33C150.034 12.3356 150.569 12.09 150.522 8.08938C150.509 6.97205 150.385 6.62148 151.42 6.44526C152.905 6.1903 154.144 6.80333 154.796 8.04251C155.158 8.72866 155.126 9.44105 155.874 9.63977C156.097 8.68367 156.165 6.71709 155.874 5.76849C154.95 5.58852 150.265 5.701 148.694 5.69725C147.593 5.69537 147.34 5.57727 146.581 5.97846C146.9 6.41339 146.75 6.2053 147.28 6.40777L147.989 6.82395L147.991 18.6534C148.012 21.7917 146.937 19.8513 146.581 21.1861C147.586 21.6679 152.633 21.143 154.558 21.3867L155.574 21.4261C155.919 21.4148 156.03 21.4036 156.438 21.1861V16.8912ZM119.97 11.7526C119.97 6.67397 123.723 3.51321 125.781 8.89738C126.84 11.6682 126.839 15.7195 125.905 18.5334C125.667 19.2495 125.243 20.1288 124.698 20.5656C123.01 21.9173 121.441 20.0407 120.869 18.5971C119.823 15.95 119.97 14.5496 119.97 11.7526ZM117.576 16.2575C117.997 19.212 122.2 23.7563 126.209 20.8074C127.12 20.1382 127.997 18.9796 128.481 17.8698C130.832 12.4668 128.006 4.31559 121.94 5.48541C120.991 5.96908 120.6 5.99533 119.578 6.99642C118.292 8.25436 117.302 10.8208 117.287 12.5906C117.276 14.0885 117.223 15.1083 117.576 16.2575ZM191.218 14.1466C191.218 12.3394 191.156 10.3015 191.835 8.56931C193.29 4.86113 195.766 5.57352 197.075 8.99487C198.436 12.5587 198.111 21.0455 194.737 21.0455C192.397 21.0455 191.218 16.3362 191.218 14.1466ZM192.626 5.76849C191.186 6.29716 190.134 7.66945 189.478 9.02674C186.304 15.5939 191.308 24.27 197.037 21.0924C200.798 19.0058 202.429 11.0046 197.663 6.57461C197.26 6.19967 197.05 6.21842 196.709 5.90909C196.259 5.69537 196 5.63913 195.582 5.48541H193.329C193.023 5.59976 192.967 5.60726 192.626 5.76849ZM162.211 6.96455C162.211 6.02157 164.689 6.3384 165.414 7.14078C165.876 7.6507 166.153 8.28998 166.153 9.21796C166.153 13.6704 162.211 13.3817 162.211 12.315V6.96455ZM159.676 16.9624C159.676 17.6879 159.803 19.3826 159.601 19.9844C159.438 20.4662 159.155 20.6912 158.268 20.7643C158.339 21.6229 158.636 21.3267 160.943 21.3267C161.464 21.3267 161.982 21.3267 162.501 21.3361C163.373 21.3511 163.557 21.5123 163.619 20.7643C162.704 20.6874 162.756 20.5656 162.211 20.2019V13.7229C163.377 13.7229 163.502 13.6085 164.305 15.5732C164.582 16.2538 166.498 20.8787 166.783 21.1205C167.306 21.5611 169.88 21.3361 170.519 21.1861C170.216 20.05 169.711 21.6173 168.405 18.6553L166.41 14.3116C166.104 13.7979 165.874 13.8335 165.731 13.3011C166.766 12.7537 168.088 12.3544 168.673 10.8921C169.269 9.40543 168.886 7.72756 167.955 6.85395C167.029 5.98033 165.542 5.68788 163.761 5.69725C162.404 5.70475 159.573 5.54352 158.409 5.76849C158.216 6.05532 158.313 5.74037 158.268 6.26154C159.185 6.33653 159.132 6.46026 159.676 6.82395V16.9624ZM268.087 14.9152C268.087 14.2947 268.503 13.0555 268.679 12.4106C269.049 11.0552 268.996 10.4403 269.635 10.2678C269.89 11.3626 270.831 14.1859 270.903 15.0558C270.366 15.1814 268.087 15.4532 268.087 14.9152ZM244.432 17.1667C244.432 17.9672 244.51 19.2495 244.437 19.9901C244.31 21.2405 243.539 20.4175 243.024 21.3923C243.641 21.6885 247.756 21.6885 248.374 21.3923C247.919 20.7118 247.298 21.0211 247.032 20.3406C246.852 19.8832 246.966 10.369 246.966 9.14297C246.966 8.55056 246.792 7.41823 247.075 7.00017C247.512 6.35527 248.284 7.12765 248.372 6.05344L247.952 5.97283C247.932 5.96908 243.611 5.97096 243.586 5.97283L243.164 6.04407C243.281 7.45198 244.462 5.66538 244.437 8.15125L244.432 17.1667ZM233.731 12.0975V20.4062C233.202 20.7606 232.653 20.8974 232.321 21.3923C233.067 21.7504 234.698 21.5348 235.701 21.5329C240.844 21.5311 241.228 22.5828 241.196 20.2694C241.183 19.3995 241.445 17.6823 241.052 17.0974C240.65 17.1067 240.885 16.8987 240.568 17.3823C240.429 17.5942 240.407 17.7873 240.356 18.0197C240.041 19.4445 239.857 20.2469 238.258 20.7174C237.195 21.0305 236.601 20.59 236.365 19.6039C236.05 18.2953 236.007 9.64539 236.222 7.68444C236.425 5.83785 237.557 7.42573 237.671 6.05344L237.25 5.97283C236.663 5.86035 235.307 6.04782 234.43 6.04782C233.212 6.04782 232.546 5.62601 232.321 6.46776C232.814 6.58211 233.335 6.68335 233.588 7.03017C233.873 7.44448 233.731 11.5632 233.731 12.0975ZM269.918 6.04407L269.776 6.11531L266.555 17.1836C266.156 18.4678 265.758 21.8291 263.723 20.8299C263.415 20.7174 263.402 20.7606 263.243 20.3238C262.988 19.6264 263.018 13.961 263.018 13.2261C263.019 11.7282 262.877 10.7796 262.877 9.28357C262.879 7.09016 262.431 6.89894 264.285 6.46776V6.11531H260.342C260.192 6.539 260.326 6.11156 260.132 6.53525C260.022 6.77896 259.981 6.91019 259.9 7.15015L257.92 13.3367C257.787 13.8354 257.673 14.1335 257.512 14.6171L257.105 15.9013C256.437 15.7232 256.617 15.5564 256.396 14.9208L255.133 11.1152C254.812 10.2528 253.74 6.55587 253.443 6.11531C252.572 5.94659 250.12 5.88847 249.501 6.18467C249.563 6.75271 249.51 6.61586 250.17 6.78458C251.616 7.15015 250.993 7.69944 250.907 9.2817C250.868 10.0316 250.909 10.9164 250.913 11.6795C250.916 12.6149 250.763 12.8943 250.763 13.7848C250.763 15.3989 250.62 16.5949 250.628 18.2953C250.643 22.3353 249.248 19.842 249.077 21.3923C249.645 21.6642 250.813 21.5273 251.614 21.5348C252.442 21.5423 253.687 21.7167 252.879 20.8993C250.841 20.5056 251.775 19.3958 251.754 15.9032C251.743 13.9516 251.503 11.2445 251.895 9.56478C252.259 9.75788 252.321 9.64727 252.6 10.6896L255.695 20.9687C255.888 21.3361 255.849 21.2836 256.259 21.3923C256.735 20.4925 258.843 13.4511 259.186 12.21C259.353 11.6101 259.488 11.2483 259.638 10.6896C259.887 9.75413 259.874 9.5929 260.342 9.42418C260.745 10.2659 260.483 18.7921 260.483 20.5468C259.733 20.9068 259.017 20.6987 258.794 21.5329C260.387 21.5329 267.721 21.771 268.509 21.3923C268.017 20.6574 268.31 21.3361 266.82 20.5468C266.82 19.2139 266.823 19.0714 267.119 18.031C267.491 16.7224 267.239 16.0063 268.505 15.8957C271.654 15.6201 271.338 16.4019 271.699 17.7798C271.801 18.1641 271.838 18.2353 271.945 18.6609C272.125 19.3751 272.311 19.7051 272.311 20.5468C270.951 21.458 271.118 20.6462 271.043 21.5329C272.239 21.5329 275.469 21.7692 276.253 21.3923C276.017 20.7399 275.876 21.1805 275.329 20.7699C274.791 20.3669 274.315 18.3628 274.142 17.731C273.94 16.9924 273.679 16.1619 273.456 15.4607C273.3 14.9752 272.888 13.7623 272.875 13.2955C272.581 12.6862 272.481 12.0919 272.279 11.4282C272.104 10.8602 271.896 10.1403 271.698 9.47479C271.446 8.63305 270.828 6.15468 270.481 5.69163L270.061 5.60726C269.969 5.72912 269.945 5.96533 269.917 6.04407H269.918ZM17.1323 0.703017C16.5699 1.27293 16.0824 1.7641 15.4994 2.38088L13.8928 4.15436C15.0214 4.15436 14.9145 4.04188 15.5819 3.59007L18.3771 1.88034C18.9882 1.49602 19.1026 1.3198 19.1026 0.352446C18.872 0.230589 18.632 0.118106 18.3996 0C17.6478 0.146227 17.6891 0.151852 17.1323 0.703017ZM9.66905 16.1938C9.25849 16.19 9.28286 16.1806 9.04477 16.6193C8.6942 17.2605 8.83668 18.2728 8.30426 19.4033C7.32566 21.4786 4.84542 22.0204 3.38877 18.3197C2.47766 16.0044 2.27331 10.7571 3.37564 8.2806C3.59873 7.78005 3.97368 7.19514 4.35424 6.86519C6.18396 5.29044 7.65561 6.58774 8.34925 8.71179C8.60984 9.50854 8.67545 10.0091 9.38784 10.0672C9.69905 9.41855 9.61468 7.74069 9.51907 6.83895C9.38784 5.59227 8.45236 5.82098 7.41565 5.49103C4.68044 4.96236 2.21145 6.57274 1.03038 8.89176C-0.649362 12.1856 -0.343784 17.3055 2.45329 20.1007C3.39814 21.0455 4.3355 21.7298 5.72091 21.7617C6.50266 21.7785 7.41002 21.786 7.98556 21.6211C10.2333 20.9799 9.80965 20.3687 9.80965 18.5165C9.80965 17.8285 9.96526 16.6324 9.66905 16.1938ZM40.7293 12.12C41.108 10.7777 40.9842 10.2416 41.6329 10.0672C41.8297 10.9127 42.0285 11.4807 42.2572 12.3993C42.6077 13.8035 43.3876 14.9958 42.4784 14.9958C40.2906 14.9958 40.0844 15.2077 40.0844 14.4334L40.7293 12.12ZM13.7522 14.7146C13.7522 14.0097 14.1515 12.9486 14.3165 12.3225C14.4871 11.672 14.8245 10.7196 14.8789 10.0672H15.3026L16.568 14.8552C16.0318 14.9808 13.7522 15.2527 13.7522 14.7146ZM52.0525 6.68897C52.793 6.5165 52.8324 6.34215 53.6404 6.49963C57.0749 7.16702 56.3288 11.8032 54.3922 12.6899C53.5429 13.0799 53.4492 13.0255 52.615 13.0255C51.5164 13.0255 51.9119 9.29295 51.9119 7.67507C51.9119 7.18952 52.015 7.12953 52.0525 6.68897ZM12.4849 16.2631C12.0087 16.6887 11.8212 19.5851 10.9851 20.3969C10.2408 21.1186 10.0309 20.3819 9.95026 21.3323H14.0353V20.9105C12.2599 20.4962 11.9487 20.5525 12.8917 17.2342C13.2348 16.0307 12.7642 15.7045 15.0176 15.6913C17.1754 15.6801 16.9673 15.9838 17.4491 18.0591C17.5653 18.5559 17.914 19.3545 17.8503 20.0669C17.7509 21.1917 17.1567 20.3894 16.568 21.1917C17.2166 21.5029 24.5899 21.4655 25.1579 21.1917C24.8467 20.0275 23.6806 21.3942 23.6038 19.3676C23.5532 18.0329 23.7575 17.2473 23.7519 15.9838L23.7463 10.7683C23.7331 9.82161 23.5963 9.75038 24.1718 9.36419C24.2656 9.7635 24.3237 9.7635 24.4512 10.071C24.5693 10.3578 24.5843 10.4534 24.6799 10.8283L27.6794 20.6425C27.865 21.1036 27.8538 20.8824 27.9737 21.3323C28.8923 20.7174 30.6396 13.6948 31.1064 12.2137L31.8375 9.84786C32.0437 9.25545 31.6988 9.39418 32.3399 9.22358C32.5349 10.0597 32.4805 10.8733 32.4805 11.8988C32.4787 13.9985 32.7355 14.9677 32.5893 17.626L32.6249 18.7921C32.698 21.7767 31.1907 19.8307 30.7896 21.3323H38.2528C39.267 21.3323 40.09 21.4992 40.5062 21.1205C39.9175 20.5375 40.3525 20.9162 39.5613 20.7268C39.0908 20.6143 39.1883 20.5956 38.8171 20.3462C38.8171 17.8416 39.0852 18.3159 39.6607 15.8413C40.4574 15.8413 41.0349 15.6313 42.0528 15.7026C43.5657 15.8094 43.3989 16.3925 43.9969 18.6871C44.2406 19.6245 44.4056 19.6057 44.1675 20.6293C42.9508 20.9124 43.2564 20.8468 43.0408 21.1917C43.3464 21.5386 53.0068 21.3323 53.4604 21.3323C53.3686 20.2281 52.823 21.1955 52.1556 20.3856C51.7001 19.8345 51.9119 14.7727 51.9119 13.8691C53.5617 13.4848 53.751 14.8177 54.6884 17.0074C55.2864 18.4022 55.8526 20.0688 56.6999 21.3323C57.4461 21.3323 58.7565 21.4355 59.1821 21.4073C60.0388 21.3473 60.8543 21.3323 61.7692 21.3323V20.9105C59.5476 20.3931 59.8626 20.4362 60.5581 17.3055C60.8187 16.1281 60.59 15.7026 62.609 15.6932C65.1305 15.682 64.4894 16.0138 65.0949 17.8641C65.2336 18.2897 65.2168 18.3066 65.3274 18.7602C65.4061 19.0902 65.5505 19.3714 65.5805 19.7988C65.6592 20.9124 65.1324 20.7174 64.3038 20.9105V21.3323H69.5117V20.9105C68.1676 20.5975 68.012 19.7576 67.457 17.6148L64.0619 6.08344C63.9026 5.54165 63.9195 5.41604 63.3177 5.49103C63.0833 5.8416 62.8546 6.70209 62.7253 7.22326C62.5715 7.83442 62.3766 8.42495 62.191 9.08298C62.0635 9.52541 62.0129 9.53853 61.8779 10.0372C61.8142 10.2753 61.7167 10.684 61.6436 10.9296L58.9515 19.9244C58.4359 19.5795 57.5248 17.2905 57.223 16.5837C55.8432 13.3536 56.2894 14.7277 55.4326 13.4473C56.7712 12.7387 57.9279 12.3637 58.5147 10.8977C59.1633 9.2817 58.644 7.77443 57.6561 6.85957C55.9238 5.25294 52.1332 5.84723 50.504 5.84535C49.1561 5.84348 49.3979 5.73662 48.11 5.84348C48.1663 6.51837 48.1944 6.27654 48.7662 6.45463C49.1674 6.57836 49.2723 6.59336 49.4204 7.06766C49.5929 7.61695 49.5667 18.0666 49.5217 19.2233C49.4842 20.1607 49.3886 20.44 48.6199 20.7287C47.9844 20.9668 47.4145 20.8299 47.0677 20.2619C46.2859 18.9815 43.0689 6.37027 42.4784 5.49103H42.0547C41.6648 5.8866 41.8072 5.86972 41.661 6.43401C40.7518 9.90598 39.1283 14.6377 38.2809 17.9822C37.5985 20.6874 37.4148 20.7699 35.7182 20.7699C35.3639 20.2394 35.1876 20.2956 35.1501 19.3658L34.8746 6.68897C36.3556 6.34402 36.1606 6.43963 36.2825 5.98408C35.5569 5.63726 33.5079 5.84348 32.4805 5.84348C31.5807 7.18577 31.2076 9.27795 30.6714 10.7927L29.451 14.6434C29.2673 15.2283 29.3648 15.4026 28.9598 15.7007C28.493 15.3876 28.538 15.247 28.3412 14.6284L26.264 8.25811C26.1234 7.86067 25.9978 7.4651 25.8459 6.98518C25.7241 6.59711 25.5329 6.24279 25.4391 5.84348C24.3837 5.84348 22.2427 5.62601 21.4966 5.98408C21.5941 6.87082 21.6691 6.23529 22.9045 6.82958C23.182 8.01627 22.747 12.7968 22.7639 14.4334C22.7789 15.7794 22.6158 16.8762 22.6252 18.3778C22.6364 20.0032 22.6121 20.6406 21.0748 20.7699C20.398 19.7595 20.6999 20.5562 20.2462 19.0639L16.1462 5.49103H15.5838L12.4849 16.2631Z" fill="var(--fill-0, white)"/>
</svg>
