<svg preserveAspectRatio="none" width="100%" height="100%" overflow="visible" style="display: block;" viewBox="0 0 49.9991 16.0004" fill="none" xmlns="http://www.w3.org/2000/svg">
<g id="Capa 1-2">
<path id="Vector" d="M3.68436 10.7157V15.3522C3.66966 15.8105 3.60455 15.8994 3.14249 15.9439C2.26668 16.0095 1.38877 16.018 0.511909 15.9693C0.180066 15.9587 0.0540505 15.8063 0.0162457 15.4771C0.00154383 15.2929 -0.0026567 15.1087 0.00154383 14.9245V10.7157H3.68331H3.68436ZM14.3485 0.106914C14.1153 0.0539861 13.877 0.0349322 13.6386 0.0497519C10.9513 0.0476348 8.26399 0.0624545 5.5746 0.0391664C4.43521 0.00952696 3.31261 0.313331 2.34019 0.912471C1.91174 1.1951 1.52529 1.53913 1.19555 1.93397C0.497207 2.71624 0.00259397 3.60543 0.00259397 4.69997V5.80192C0.336536 7.95607 1.49693 9.36924 3.70011 9.84558L4.42996 9.835H5.63656C7.30102 9.835 8.96653 9.835 10.6299 9.81383C11.1624 9.81383 11.2401 9.72068 11.2527 9.19987C11.2705 8.44512 11.2789 7.68932 11.2705 6.93457C11.2705 6.47092 11.1036 6.30791 10.6488 6.26027C10.4661 6.24651 10.2834 6.24228 10.1007 6.24757H4.66729C4.48981 6.24757 4.30184 6.24757 4.12017 6.23275C3.90699 6.23698 3.72742 6.07291 3.71167 5.85908C3.56045 4.73172 3.86919 4.11247 4.87101 3.79279C5.08524 3.74092 5.30472 3.72398 5.5242 3.74304C7.31677 3.74304 9.10935 3.75786 10.9009 3.75891C11.9657 3.75891 13.0305 3.75892 14.0838 3.73351C14.5522 3.73351 14.7066 3.58108 14.7759 3.12167C14.8693 2.31611 14.8903 1.5042 14.8378 0.695468C14.8294 0.330268 14.6919 0.208535 14.3474 0.106914H14.3485ZM32.1871 4.93814C31.7807 6.98644 30.5667 8.30963 28.3352 8.71505V8.2874C28.3352 5.7998 28.3352 3.31538 28.3499 0.827787C28.3499 0.187364 28.4969 0.0444591 29.1217 0.0317565C29.8894 0.0158783 30.6591 0.00529276 31.4289 0C32.0096 0 32.1136 0.112206 32.1713 0.702878C32.248 1.45762 32.1713 2.21131 32.1713 2.96606L32.1871 4.93814ZM16.8121 0.0434006C17.6889 0.0201125 18.5679 0.00740986 19.4448 0.0201125C19.9362 0.0201125 20.0339 0.152431 20.0612 0.667946C20.0738 0.924115 20.0717 1.18346 20.0717 1.44069V8.12756C20.0654 8.32974 20.0717 8.53298 20.0895 8.73411V9.44969L20.706 8.84102C21.4925 8.07357 22.2465 7.27754 23.1003 6.58101C23.5707 6.19676 24.3982 6.02104 24.8666 6.36295C25.2552 6.63076 25.6216 6.92928 25.9619 7.25743C26.2916 7.58981 26.6455 7.90314 26.9595 8.25035C27.1832 8.49699 27.4069 8.74046 27.6337 8.98181C27.8605 9.22316 28.0863 9.42957 28.3205 9.64764H32.2112C32.2112 10.5855 32.2217 11.4366 32.2259 12.3639C32.2259 13.0085 32.2028 13.6543 32.1493 14.2968C32.0852 15.0568 31.7124 15.6052 30.971 15.8698C30.1834 16.1503 29.5386 15.8899 28.9632 15.3585C27.5003 14.0078 26.1121 12.5597 24.687 11.173C24.3226 10.8152 24.0181 10.7972 23.6926 11.1423C22.7233 12.1733 21.6584 13.1091 20.7144 14.1549C20.3017 14.6228 19.8617 15.0664 19.3975 15.4824C18.361 16.3768 16.7008 16.0053 16.3479 14.7234C16.2912 14.4736 16.2692 14.2174 16.2818 13.9612V1.19299C16.2818 0.988687 16.2713 0.786503 16.2818 0.58432C16.3017 0.183129 16.4078 0.0529276 16.8121 0.042342V0.0434006ZM48.1166 1.15488C47.4077 0.559974 46.5382 0.190539 45.6204 0.0942111C45.3295 0.0688058 45.0386 0.0444591 44.7467 0.0444591C41.9491 0.0444591 39.1516 0.0444591 36.354 0.0444591L36.0348 0.0550447C35.0518 0.0783328 33.8211 1.12842 33.883 2.33411C33.9345 3.31327 33.9419 4.30195 33.9377 5.27582H37.7381V3.76421C38.9646 3.76421 40.1933 3.77691 41.4209 3.78961L44.4736 3.81502C44.9473 3.81502 45.4765 3.80655 45.8577 4.14211C45.906 4.18551 45.9501 4.23315 45.9911 4.28396C46.3429 4.74548 46.2568 5.40708 45.7989 5.76169C45.717 5.82521 45.6267 5.87602 45.5311 5.91201C45.068 6.07185 44.5797 6.14277 44.0914 6.1216H39.8026C39.1117 6.1216 38.4238 6.1216 37.7328 6.10149C35.7806 6.42858 34.4522 7.4649 33.9062 9.38088V13.7125C33.9062 14.174 33.8914 14.6345 33.9167 15.0939C33.9503 15.7555 34.1886 15.9884 34.8429 15.9884H36.8717C37.548 15.9884 37.6793 15.8582 37.6919 15.1828C37.7097 14.336 37.7024 13.4881 37.7118 12.6423C37.7118 12.0537 37.7549 10.8766 37.7549 10.8766L37.7801 9.84029L38.762 9.85299H39.6409C41.5417 9.85299 43.4435 9.85299 45.3442 9.817C46.5088 9.79689 47.5075 9.2909 48.3623 8.54357C49.5216 7.53794 50.0625 6.27297 49.9931 4.68621C49.9333 3.15131 49.2223 2.03136 48.1155 1.15594L48.1166 1.15488Z" fill="var(--fill-0, white)"/>
</g>
</svg>
