<svg preserveAspectRatio="none" width="100%" height="100%" overflow="visible" style="display: block;" viewBox="0 0 80 16" fill="none" xmlns="http://www.w3.org/2000/svg">
<path id="Vector" d="M27.6514 15.5891V0.410852C27.6514 0.184535 27.834 0 28.0606 0H28.4258C28.6523 0 28.835 0.184535 28.835 0.410852V15.5891C28.835 15.8166 28.6512 16 28.4258 16H28.0606C27.834 16 27.6514 15.8155 27.6514 15.5891ZM50.23 14.9253C50.23 15.5184 50.7085 16 51.3003 16H61.6794C61.6794 15.4069 61.2009 14.9253 60.6091 14.9253H51.4135H50.23ZM60.5409 8.04294V7.84216C60.5409 7.60075 60.3467 7.40577 60.1063 7.40577H50.6577C50.4207 7.40577 50.23 7.59843 50.23 7.8352V8.04991C50.23 8.28783 50.4219 8.47933 50.6577 8.47933H60.1063C60.3467 8.47933 60.5409 8.28435 60.5409 8.04294ZM61.565 0H51.2991C50.7085 0 50.2288 0.480487 50.2288 1.07471H51.4124H60.4947C61.0853 1.07471 61.565 0.594226 61.565 0ZM79.3851 4.81184C78.9748 3.8439 78.3946 3.00247 77.6433 2.28638C76.8921 1.57029 75.9963 1.01088 74.9572 0.605832C73.9182 0.201944 72.7751 0 71.5314 0H66.2275C66.2275 0.593065 66.706 1.07471 67.2977 1.07471H71.5314C72.6387 1.07471 73.6408 1.25809 74.5365 1.62484C75.4323 1.99159 76.1905 2.48832 76.8123 3.11504C77.4341 3.74177 77.9161 4.47643 78.2582 5.3167C78.5992 6.15697 78.7702 7.05179 78.7702 8V8.04526C78.7702 9.00856 78.5992 9.90686 78.2582 10.7402C77.9172 11.5735 77.4353 12.3 76.8123 12.9186C76.1905 13.5384 75.4311 14.027 74.5365 14.3856C73.6408 14.7454 72.6399 14.9241 71.5314 14.9241H67.2977C66.7071 14.9241 66.2275 15.4046 66.2275 15.9988H71.5314C72.7751 15.9988 73.9182 15.7934 74.9572 15.3814C75.9963 14.9694 76.8921 14.4065 77.6433 13.6904C78.3946 12.9743 78.9748 12.1282 79.3851 11.1533C79.7943 10.1784 80 9.12694 80 7.99884V7.95358C80 6.82664 79.7954 5.77862 79.3851 4.81068V4.81184ZM44.4545 13.9202L33.4824 0.0290149V1.4287C33.4824 1.65849 33.5599 1.88133 33.702 2.06122L44.1528 15.3013C44.5007 15.7423 45.0312 16 45.5918 16V1.14319C45.5918 0.511824 45.0821 0 44.4545 0V13.9202ZM12.1105 15.8805L22.7346 2.42797C22.9126 2.20281 23.0086 1.92427 23.0086 1.63644V0.316843L12.0735 14.1709L0.887656 0H0.39644C0.176838 0 0 0.177571 0 0.398085V15.7017C0 15.8665 0.132917 16 0.297041 16H0.840268C1.00439 16 1.13731 15.8665 1.13731 15.7017V2.07979L12.0365 15.8793H12.1082L12.1105 15.8805Z" fill="var(--fill-0, white)"/>
</svg>
