<svg preserveAspectRatio="none" width="100%" height="100%" overflow="visible" style="display: block;" viewBox="0 0 134.082 53.9915" fill="none" xmlns="http://www.w3.org/2000/svg">
<path id="Vector" fill-rule="evenodd" clip-rule="evenodd" d="M98.1828 40.4525C98.1828 42.7453 98.1772 45.0381 98.1828 47.329C98.1847 48.4688 98.0816 49.6067 97.7066 50.3923C97.1198 51.6221 96.4056 51.8414 96.2612 52.3851H129.935C133.043 52.3851 132.79 52.5838 132.904 51.8152L133.879 46.4179C133.943 46.1423 134.052 45.6436 134.082 45.3568C133.658 45.3043 133.139 45.6117 132.724 45.7711C131.511 46.236 129.684 46.6672 128.375 46.8809C127.768 46.9803 127.417 47.0796 126.804 47.1303L122.241 47.5164C120.091 47.6983 115.841 47.5258 113.25 47.5314C111.9 47.5352 109.354 47.2277 108.194 47.2277C108.194 39.2733 108.194 31.3189 108.194 23.3627C108.194 21.3548 108.078 6.70584 108.207 5.47791C108.509 2.60772 110.07 2.0828 110.217 1.67224L96.0587 1.62163C96.3756 2.09593 96.8967 2.45587 97.3036 3.00516C98.5184 4.64928 98.1828 7.46135 98.1828 9.71101V40.4525ZM50.3514 40.4019C50.432 40.4806 50.3495 40.3813 50.4583 40.5575C50.462 40.5669 50.5445 40.7169 50.5614 40.745L53.8627 45.5367C57.6047 49.423 61.774 51.9445 67.0288 53.0993C71.1851 54.0142 71.4475 53.9017 75.6319 53.9017C77.9415 53.9017 79.4038 53.8342 81.7566 53.4537L84.518 52.9812C85.7085 52.76 89.1523 51.7683 90.1665 51.144C90.6877 50.8234 91.2314 48.6356 91.4188 48.0507C92.0356 46.1254 92.2156 44.4363 92.2156 42.3741L92.1144 40.4019C91.8463 40.4282 91.8781 40.49 91.6101 40.8575C91.4395 41.0881 91.3382 41.163 91.147 41.4049C89.5048 43.4821 87.6525 45.1018 85.4797 46.5603C81.5054 49.2318 76.6649 49.7005 72.0549 48.3769C70.2327 47.8558 68.3168 46.8528 66.832 45.713L65.156 44.2544C63.33 42.2972 62.0327 40.4713 60.9398 37.9535C60.1674 36.1782 59.395 33.8104 59.0894 31.917C58.0077 25.2242 58.3864 16.3362 62.4845 10.9239C62.6308 10.7308 62.7545 10.5546 62.9176 10.3447C63.5306 9.56103 64.5992 8.55243 65.3885 7.9619C67.7225 6.21654 70.8214 5.06547 74.0103 4.85363C77.8553 4.59867 77.6997 4.68678 81.0667 5.38792L82.6114 5.86597C84.7411 6.71522 85.7572 7.26263 87.6638 8.5993C89.0267 9.55353 90.3577 11.1002 90.6989 11.3289C90.6989 10.8246 90.654 10.5509 90.5921 10.1216L89.7897 2.02656C89.5479 1.86534 89.6229 1.85034 89.3604 1.74536C88.693 1.48102 86.3927 1.08171 85.5641 0.892363C84.6418 0.68052 81.1323 0.299954 80.9917 0.256836C79.9175 0.0487424 78.7664 0.213717 77.6697 0.0899862C76.9067 0.00374918 74.9289 0.114357 74.6195 0.0543666C74.209 0.185597 68.1649 0.0562414 62.3252 3.07828C61.3616 3.57695 59.1138 4.908 58.2683 5.59414C58.0208 5.79473 57.944 5.89222 57.6609 6.10031L56.448 7.11266C55.6306 7.79505 54.5676 9.09048 53.8665 9.89098C50.8482 13.3442 48.5517 19.2083 48.0061 23.7488C47.5787 27.3145 47.4568 30.3985 48.203 33.8029L48.606 35.6251C48.8929 37.0049 49.8433 39.1609 50.3514 40.4019ZM44.3842 40.4019C44.2211 40.4582 44.3786 40.3644 44.2173 40.4975C44.1967 40.5144 44.1405 40.5725 44.1217 40.5931C44.1049 40.6119 43.938 40.8331 43.9005 40.88C42.457 42.6797 41.4353 43.8964 39.4856 45.3643C39.2325 45.5555 39.1481 45.653 38.925 45.8142C38.7432 45.9436 38.5876 46.0298 38.3776 46.176L37.2097 46.9315C31.8386 50.1692 24.7203 49.6142 19.6942 46.131C16.9759 44.2488 14.4844 40.9268 13.2527 37.9104C10.9431 32.26 10.3919 27.2377 11.1849 21.008C11.3986 19.3377 11.483 19.2739 11.7961 17.6729C11.9011 17.1349 12.0698 16.6474 12.2273 16.1825C13.0221 13.8391 13.9782 11.6363 15.6898 9.83849L16.7003 8.82614C17.8833 7.78193 18.3782 7.30388 20.1292 6.49025C23.7399 4.81239 27.7705 4.36808 31.8592 5.04672C35.2937 5.61664 39.0694 7.57009 41.6302 9.93785C41.9714 10.2528 42.7363 11.2408 43.07 11.3289C43.0606 10.9314 42.9238 10.3653 42.8844 9.99784L42.4626 5.86972C42.4251 4.96611 42.1983 4.10374 42.1589 3.13827C42.0933 1.54851 42.0408 1.86909 40.7566 1.50727L32.9559 0.208093C32.5922 0.19122 30.397 0.108733 30.2264 0.0543666C30.0164 0.0937355 28.6947 0 28.1004 0L25.9764 0.101234C24.321 0.119982 20.1985 0.886738 18.4963 1.52039C15.5717 2.61147 15.1499 2.68834 12.3585 4.38308C9.72639 5.97846 7.30238 8.40246 5.46517 10.8377C3.55484 13.3686 1.93696 16.7712 1.10271 19.9244C0.785886 21.1205 0.538424 22.2435 0.33783 23.6082C-0.102728 26.6172 -0.179591 30.959 0.515928 33.861C0.935863 35.6139 1.30706 37.3405 2.04569 39.0034C3.11053 41.3955 4.65154 43.9882 6.43627 45.8405C6.81309 46.2323 7.15616 46.5753 7.54797 46.9522C7.79731 47.1921 7.90979 47.2277 8.15538 47.4565C9.22959 48.4538 10.7537 49.5224 12.0285 50.2573C15.7573 52.4057 18.8525 53.1687 23.0031 53.7442C28.0011 54.436 35.8767 53.6336 40.7322 51.8676C41.0078 51.7683 41.2478 51.6746 41.5421 51.5658C41.8889 51.4402 41.9639 51.384 42.3089 51.2209C42.7438 51.0147 42.6819 51.0934 42.8582 50.6585C43.9249 48.0207 45.1584 42.9365 44.3842 40.4019Z" fill="var(--fill-0, white)"/>
</svg>
