<svg preserveAspectRatio="none" width="100%" height="100%" overflow="visible" style="display: block;" viewBox="0 0 598 90" fill="none" xmlns="http://www.w3.org/2000/svg">
<g id="WORLD GEN NUEVO LOGO 1">
<path id="Vector" d="M433.408 79.9502C412.503 79.9502 398.11 65.1919 398.11 45.2351V45.042C398.11 25.8495 412.979 10.1309 433.305 10.1309C445.393 10.1309 452.676 13.409 459.683 19.3857L450.379 30.6728C445.198 26.3309 440.596 23.8283 432.826 23.8283C422.08 23.8283 413.547 33.377 413.547 44.8488V45.042C413.547 57.39 421.988 66.4488 433.881 66.4488C439.254 66.4488 444.048 65.0995 447.787 62.3953V52.7543H432.918V39.9247H462.069V69.237C455.162 75.1213 445.666 79.9418 433.394 79.9418H433.405V79.953L433.408 79.9502ZM583.949 78.7857L551.435 35.8684V78.7857H536.858V11.2843H550.48L581.936 52.8551V11.2843H596.513V78.7969H583.949V78.7857ZM502.295 68.4504H485.597C491.204 58.8289 498.79 50.596 507.081 45.3471L505.911 44.5409C497.44 38.8302 490.391 30.9359 485.251 21.754H502.571L502.701 21.5076C504.773 17.6977 506.46 13.6834 507.679 9.56827C507.729 9.40591 507.832 8.87403 507.832 8.87403H479.614C478.72 6.15583 477.969 3.36765 477.389 0.54028H464.012V0.621462C465.841 17.4233 474.291 33.7241 487.261 45.4703C474.697 57.0737 466.245 73.0358 464.051 89.3673V89.4597H477.348C477.938 86.7135 478.72 83.9841 479.664 81.3079H507.841C507.841 81.3079 507.791 81.042 507.76 80.93C506.165 75.9975 504.052 71.5941 502.448 68.6631C502.417 68.6016 502.306 68.428 502.306 68.428V68.4476H502.295V68.4504ZM511.588 49.9549L511.201 50.1481C508.102 51.8641 503.999 54.9182 501.245 57.3173L500.881 57.6448C508.59 66.53 513.993 77.274 516.524 88.7039L516.685 89.4597H530.255L530.082 88.3568C527.869 73.9456 521.468 60.6765 511.574 49.9549H511.585H511.588ZM501.493 33.0299C503.86 35.6753 507.74 39.0037 510.697 41.1593L511.165 41.4868C521.638 30.488 528.2 16.7095 530.138 1.63204L530.28 0.548678H516.688L516.535 1.32411C514.261 12.9163 508.988 23.7723 501.268 32.7527L501.502 33.0383H501.49V33.0271L501.493 33.0299ZM80.6604 79.8019H67.7705L52.57 35.4877L37.3694 79.8019H24.4796L1.48386 11.609H17.3526L31.3003 57.4628L46.4174 11.4131H59.1124L74.2294 57.4628L88.1772 11.609H103.656L80.6604 79.8019ZM175.984 45.2575C175.984 40.4146 175.093 35.8796 173.339 31.6526C171.585 27.4255 169.108 23.7583 165.934 20.623C162.76 17.4877 159.002 15.0243 154.631 13.1767C150.26 11.3291 145.499 10.4053 140.293 10.4053C135.087 10.4053 130.299 11.3291 125.9 13.1767C121.501 15.0243 117.715 17.5437 114.542 20.735C111.368 23.9263 108.862 27.6215 107.08 31.8485C105.271 36.0756 104.38 40.6106 104.38 45.4535V45.6495C104.38 50.4924 105.271 55.0274 107.025 59.2544C108.779 63.4815 111.256 67.1487 114.43 70.284C117.604 73.4193 121.362 75.8827 125.733 77.7303C130.104 79.5779 134.865 80.5017 140.071 80.5017C145.277 80.5017 150.065 79.5779 154.464 77.7303C158.863 75.8827 162.649 73.3633 165.823 70.172C168.996 66.9807 171.474 63.2855 173.284 59.0585C175.093 54.8314 175.984 50.2964 175.984 45.4535V45.2575ZM160.505 45.6495C160.505 48.5608 160.004 51.2762 159.002 53.8236C158 56.3711 156.608 58.6106 154.854 60.5421C153.072 62.4737 150.956 63.9854 148.45 65.0771C145.945 66.1689 143.3 66.7288 140.266 66.7288C137.231 66.7288 134.503 66.1689 132.025 65.0491C129.547 63.9294 127.404 62.3897 125.566 60.4582C123.729 58.5266 122.337 56.2591 121.334 53.6837C120.332 51.1082 119.831 48.3648 119.831 45.4535V45.2575C119.831 42.3462 120.332 39.6308 121.334 37.0834C122.337 34.5359 123.729 32.2964 125.483 30.3649C127.236 28.4333 129.352 26.9216 131.83 25.8299C134.308 24.7381 137.12 24.1782 140.071 24.1782C143.022 24.1782 145.75 24.7381 148.256 25.8579C150.761 26.9776 152.905 28.5173 154.742 30.4488C156.58 32.3804 157.972 34.6479 158.974 37.2233C159.976 39.7988 160.477 42.5421 160.477 45.4535H160.505V45.6495ZM226.486 55.1393C230.773 53.5437 234.253 50.9963 236.925 47.553C239.57 44.0818 240.907 39.6308 240.907 34.144V33.9481C240.907 26.9216 238.679 21.4628 234.225 17.5157C229.771 13.5686 223.535 11.609 215.517 11.609H184.726V79.326H199.537V57.6588H211.174L225.595 79.326H242.939L226.486 55.1393ZM225.817 34.7599V34.9558C225.817 37.8672 224.843 40.1907 222.894 41.9263C220.945 43.6619 218.134 44.5297 214.487 44.5297H199.481V25.074H214.208C217.883 25.074 220.723 25.8579 222.783 27.4815C224.843 29.0771 225.873 31.5126 225.873 34.7319L225.817 34.7599ZM250.094 79.326V11.609H264.905V65.889H298.479V79.326H250.094ZM364.627 31.9885C362.901 27.9014 360.451 24.3182 357.277 21.2949C354.103 18.2715 350.317 15.8921 345.919 14.1844C341.52 12.4768 336.704 11.609 331.442 11.609H305.189V79.326H331.442C336.704 79.326 341.52 78.4582 345.919 76.7225C350.317 74.9589 354.103 72.5795 357.277 69.5561C360.451 66.5048 362.901 62.9216 364.627 58.8065V58.8345C366.353 54.6914 367.216 50.2684 367.216 45.4815V45.2855C367.216 40.5266 366.353 36.0756 364.627 31.9885ZM351.737 45.5935C351.737 48.6448 351.236 51.3602 350.234 53.8236C349.231 56.2591 347.867 58.3866 346.086 60.2062C344.304 62.0258 342.188 63.3975 339.682 64.3773C337.177 65.3571 334.421 65.833 331.414 65.833H319.972V25.018H331.414C334.421 25.018 337.177 25.5219 339.682 26.5297C342.188 27.5095 344.332 28.9372 346.086 30.7288C347.867 32.5484 349.231 34.7039 350.234 37.2233C351.236 39.7428 351.737 42.4862 351.737 45.4535V45.5935Z" fill="url(#paint0_linear_27_848)"/>
</g>
<defs>
<linearGradient id="paint0_linear_27_848" x1="1.48386" y1="45" x2="596.516" y2="45" gradientUnits="userSpaceOnUse">
<stop stop-color="#CFD1FB"/>
<stop offset="0.3" stop-color="white"/>
<stop offset="0.7" stop-color="white"/>
<stop offset="1" stop-color="#CFD1FB"/>
</linearGradient>
</defs>
</svg>
