<svg preserveAspectRatio="none" width="100%" height="100%" overflow="visible" style="display: block;" viewBox="0 0 19.9853 19.9976" fill="none" xmlns="http://www.w3.org/2000/svg">
<path id="Vector" d="M9.94418 8.94346C9.70213 8.94346 9.46551 9.01523 9.26425 9.14971C9.06299 9.28419 8.90613 9.47532 8.8135 9.69895C8.72087 9.92258 8.69663 10.1687 8.74386 10.4061C8.79108 10.6435 8.90764 10.8615 9.0788 11.0327C9.24995 11.2038 9.46802 11.3204 9.70542 11.3676C9.94282 11.4148 10.1889 11.3906 10.4125 11.298C10.6362 11.2053 10.8273 11.0485 10.9618 10.8472C11.0962 10.646 11.168 10.4093 11.168 10.1673C11.168 9.84271 11.0391 9.53142 10.8096 9.30191C10.5801 9.07239 10.2688 8.94346 9.94418 8.94346ZM6.16345 6.64169C5.9214 6.64169 5.68478 6.71347 5.48352 6.84795C5.28226 6.98242 5.1254 7.17356 5.03277 7.39719C4.94014 7.62082 4.91591 7.86689 4.96313 8.10429C5.01035 8.34169 5.12691 8.55976 5.29807 8.73092C5.46922 8.90208 5.68729 9.01864 5.92469 9.06586C6.1621 9.11308 6.40817 9.08884 6.6318 8.99621C6.85542 8.90358 7.04656 8.74672 7.18104 8.54546C7.31552 8.3442 7.38729 8.10759 7.38729 7.86553C7.38729 7.54095 7.25836 7.22966 7.02884 7.00015C6.79933 6.77063 6.48804 6.64169 6.16345 6.64169ZM1.22384 8.91239C0.981789 8.91239 0.745172 8.98416 0.543912 9.11864C0.342652 9.25312 0.18579 9.44426 0.0931599 9.66789C0.000530273 9.89151 -0.0237059 10.1376 0.0235163 10.375C0.0707385 10.6124 0.187298 10.8305 0.358455 11.0016C0.529613 11.1728 0.74768 11.2893 0.985082 11.3366C1.22248 11.3838 1.46856 11.3595 1.69219 11.2669C1.91581 11.1743 2.10695 11.0174 2.24143 10.8162C2.37591 10.6149 2.44768 10.3783 2.44768 10.1362C2.44768 9.81165 2.31874 9.50036 2.08923 9.27084C1.85971 9.04133 1.54842 8.91239 1.22384 8.91239ZM2.30459 4.53668C2.06253 4.53668 1.82592 4.60846 1.62466 4.74294C1.4234 4.87742 1.26654 5.06855 1.17391 5.29218C1.08128 5.51581 1.05704 5.76188 1.10426 5.99929C1.15148 6.23669 1.26804 6.45476 1.4392 6.62591C1.61036 6.79707 1.82843 6.91363 2.06583 6.96085C2.30323 7.00807 2.5493 6.98384 2.77293 6.89121C2.99656 6.79858 3.1877 6.64172 3.32217 6.44046C3.45665 6.2392 3.52843 6.00258 3.52843 5.76053C3.52843 5.59981 3.49677 5.44067 3.43527 5.29218C3.37377 5.1437 3.28362 5.00878 3.16997 4.89514C3.05633 4.7815 2.92141 4.69135 2.77293 4.62984C2.62445 4.56834 2.4653 4.53668 2.30459 4.53668ZM13.756 6.49577C13.5139 6.49577 13.2773 6.56755 13.076 6.70203C12.8748 6.8365 12.7179 7.02764 12.6253 7.25127C12.5327 7.4749 12.5084 7.72097 12.5557 7.95837C12.6029 8.19577 12.7194 8.41384 12.8906 8.585C13.0617 8.75616 13.2798 8.87272 13.5172 8.91994C13.7546 8.96716 14.0007 8.94293 14.2243 8.8503C14.4479 8.75767 14.6391 8.6008 14.7736 8.39954C14.908 8.19828 14.9798 7.96167 14.9798 7.71961C14.9798 7.39503 14.8509 7.08374 14.6214 6.85423C14.3918 6.62471 14.0806 6.49577 13.756 6.49577ZM14.2201 1.06757C13.978 1.06757 13.7414 1.13934 13.5402 1.27382C13.3389 1.4083 13.182 1.59944 13.0894 1.82306C12.9968 2.04669 12.9725 2.29276 13.0198 2.53017C13.067 2.76757 13.1835 2.98564 13.3547 3.15679C13.5259 3.32795 13.7439 3.44451 13.9813 3.49173C14.2187 3.53896 14.4648 3.51472 14.6884 3.42209C14.9121 3.32946 15.1032 3.1726 15.2377 2.97134C15.3722 2.77008 15.4439 2.53346 15.4439 2.29141C15.4439 1.96682 15.315 1.65554 15.0855 1.42602C14.856 1.19651 14.5447 1.06757 14.2201 1.06757ZM18.7615 8.56124C18.5194 8.56124 18.2828 8.63302 18.0816 8.76749C17.8803 8.90197 17.7234 9.09311 17.6308 9.31674C17.5382 9.54037 17.5139 9.78644 17.5612 10.0238C17.6084 10.2612 17.7249 10.4793 17.8961 10.6505C18.0673 10.8216 18.2853 10.9382 18.5227 10.9854C18.7601 11.0326 19.0062 11.0084 19.2298 10.9158C19.4535 10.8231 19.6446 10.6663 19.7791 10.465C19.9136 10.2638 19.9853 10.0271 19.9853 9.78508C19.9853 9.4605 19.8564 9.14921 19.6269 8.91969C19.3974 8.69018 19.0861 8.56124 18.7615 8.56124ZM17.4972 4.22508C17.2551 4.22508 17.0185 4.29685 16.8172 4.43133C16.616 4.56581 16.4591 4.75695 16.3665 4.98057C16.2739 5.2042 16.2496 5.45028 16.2968 5.68768C16.3441 5.92508 16.4606 6.14315 16.6318 6.3143C16.8029 6.48546 17.021 6.60202 17.2584 6.64924C17.4958 6.69647 17.7419 6.67223 17.9655 6.5796C18.1891 6.48697 18.3803 6.33011 18.5147 6.12885C18.6492 5.92759 18.721 5.69097 18.721 5.44892C18.721 5.12433 18.5921 4.81305 18.3626 4.58353C18.133 4.35402 17.8217 4.22508 17.4972 4.22508ZM6.2576 11.0362C6.01554 11.0362 5.77892 11.108 5.57767 11.2425C5.37641 11.377 5.21954 11.5681 5.12691 11.7917C5.03428 12.0153 5.01005 12.2614 5.05727 12.4988C5.10449 12.7362 5.22105 12.9543 5.39221 13.1255C5.56337 13.2966 5.78143 13.4132 6.01884 13.4604C6.25624 13.5076 6.50231 13.4834 6.72594 13.3907C6.94957 13.2981 7.1407 13.1413 7.27518 12.94C7.40966 12.7387 7.48144 12.5021 7.48144 12.2601C7.48144 11.9355 7.3525 11.6242 7.12298 11.3947C6.89347 11.1652 6.58218 11.0362 6.2576 11.0362ZM2.50982 13.2956C2.26776 13.2956 2.03115 13.3674 1.82989 13.5019C1.62863 13.6364 1.47176 13.8275 1.37913 14.0511C1.2865 14.2747 1.26227 14.5208 1.30949 14.7582C1.35671 14.9956 1.47327 15.2137 1.64443 15.3849C1.81559 15.556 2.03365 15.6726 2.27106 15.7198C2.50846 15.767 2.75453 15.7428 2.97816 15.6501C3.20179 15.5575 3.39293 15.4007 3.5274 15.1994C3.66188 14.9981 3.73366 14.7615 3.73366 14.5195C3.73366 14.1949 3.60472 13.8836 3.3752 13.6541C3.14569 13.4246 2.8344 13.2956 2.50982 13.2956ZM13.8501 10.8903C13.6081 10.8903 13.3714 10.9621 13.1702 11.0966C12.9689 11.231 12.8121 11.4222 12.7194 11.6458C12.6268 11.8694 12.6026 12.1155 12.6498 12.3529C12.697 12.5903 12.8136 12.8084 12.9847 12.9795C13.1559 13.1507 13.374 13.2672 13.6114 13.3145C13.8488 13.3617 14.0948 13.3375 14.3185 13.2448C14.5421 13.1522 14.7332 12.9953 14.8677 12.7941C15.0022 12.5928 15.074 12.3562 15.074 12.1141C15.074 11.7896 14.945 11.4783 14.7155 11.2488C14.486 11.0192 14.1747 10.8903 13.8501 10.8903ZM14.543 16.2488C14.3009 16.2488 14.0643 16.3206 13.8631 16.4551C13.6618 16.5896 13.5049 16.7807 13.4123 17.0043C13.3197 17.228 13.2955 17.474 13.3427 17.7114C13.3899 17.9488 13.5065 18.1669 13.6776 18.3381C13.8488 18.5092 14.0668 18.6258 14.3042 18.673C14.5416 18.7202 14.7877 18.696 15.0113 18.6034C15.235 18.5107 15.4261 18.3539 15.5606 18.1526C15.6951 17.9514 15.7668 17.7147 15.7668 17.4727C15.7668 17.1481 15.6379 16.8368 15.4084 16.6073C15.1789 16.3778 14.8676 16.2488 14.543 16.2488ZM17.6798 12.9661C17.4375 12.9652 17.2005 13.0362 16.9986 13.1701C16.7967 13.304 16.6391 13.4948 16.5458 13.7184C16.4524 13.9419 16.4275 14.1881 16.4742 14.4258C16.5209 14.6635 16.6371 14.882 16.808 15.0537C16.979 15.2253 17.1971 15.3423 17.4346 15.3899C17.6721 15.4375 17.9184 15.4136 18.1423 15.3211C18.3662 15.2286 18.5577 15.0717 18.6923 14.8704C18.827 14.669 18.8989 14.4322 18.8989 14.19C18.8989 13.8662 18.7706 13.5556 18.5421 13.3262C18.3136 13.0969 18.0036 12.9674 17.6798 12.9661ZM9.96019 4.37759C9.71813 4.37759 9.48152 4.44936 9.28026 4.58384C9.079 4.71832 8.92213 4.90946 8.8295 5.13308C8.73687 5.35671 8.71264 5.60278 8.75986 5.84019C8.80708 6.07759 8.92364 6.29566 9.0948 6.46681C9.26596 6.63797 9.48402 6.75453 9.72143 6.80175C9.95883 6.84897 10.2049 6.82474 10.4285 6.73211C10.6522 6.63948 10.8433 6.48262 10.9778 6.28136C11.1122 6.0801 11.184 5.84348 11.184 5.60143C11.184 5.44063 11.1523 5.28141 11.0908 5.13287C11.0292 4.98432 10.939 4.84936 10.8252 4.73571C10.7115 4.62205 10.5765 4.53192 10.4279 4.47047C10.2793 4.40903 10.12 4.37746 9.95924 4.37759H9.96019ZM5.46022 1.24267C5.21816 1.24267 4.98155 1.31445 4.78029 1.44892C4.57903 1.5834 4.42216 1.77454 4.32953 1.99817C4.2369 2.22179 4.21267 2.46787 4.25989 2.70527C4.30711 2.94267 4.42367 3.16074 4.59483 3.3319C4.76599 3.50305 4.98405 3.61961 5.22146 3.66684C5.45886 3.71406 5.70493 3.68982 5.92856 3.59719C6.15219 3.50456 6.34333 3.3477 6.4778 3.14644C6.61228 2.94518 6.68406 2.70856 6.68406 2.46651C6.68406 2.14193 6.55512 1.83064 6.3256 1.60112C6.09609 1.37161 5.7848 1.24267 5.46022 1.24267ZM9.82933 0C9.58728 0 9.35066 0.071777 9.1494 0.206254C8.94814 0.340732 8.79128 0.53187 8.69865 0.755497C8.60602 0.979125 8.58178 1.2252 8.629 1.4626C8.67623 1.7 8.79278 1.91807 8.96394 2.08923C9.1351 2.26038 9.35317 2.37694 9.59057 2.42417C9.82797 2.47139 10.074 2.44715 10.2977 2.35452C10.5213 2.26189 10.7124 2.10503 10.8469 1.90377C10.9814 1.70251 11.0532 1.46589 11.0532 1.22384C11.0532 0.899258 10.9242 0.58797 10.6947 0.358455C10.4652 0.12894 10.1539 0 9.82933 0ZM10.1955 17.5499C9.95349 17.5499 9.71687 17.6217 9.51561 17.7561C9.31435 17.8906 9.15749 18.0818 9.06486 18.3054C8.97223 18.529 8.94799 18.7751 8.99521 19.0125C9.04244 19.2499 9.159 19.468 9.33015 19.6391C9.50131 19.8103 9.71938 19.9268 9.95678 19.974C10.1942 20.0213 10.4403 19.997 10.6639 19.9044C10.8875 19.8118 11.0786 19.6549 11.2131 19.4537C11.3476 19.2524 11.4194 19.0158 11.4194 18.7737C11.4194 18.4491 11.2904 18.1379 11.0609 17.9083C10.8314 17.6788 10.5201 17.5499 10.1955 17.5499ZM10.1165 13.1714C9.87441 13.1714 9.63779 13.2431 9.43653 13.3776C9.23527 13.5121 9.07841 13.7032 8.98578 13.9269C8.89315 14.1505 8.86891 14.3966 8.91614 14.634C8.96336 14.8714 9.07992 15.0894 9.25107 15.2606C9.42223 15.4317 9.6403 15.5483 9.8777 15.5955C10.1151 15.6427 10.3612 15.6185 10.5848 15.5259C10.8084 15.4332 10.9996 15.2764 11.134 15.0751C11.2685 14.8739 11.3403 14.6372 11.3403 14.3952C11.3403 14.0706 11.2114 13.7593 10.9818 13.5298C10.7523 13.3003 10.441 13.1714 10.1165 13.1714ZM5.77559 16.4352C5.53354 16.4352 5.29692 16.507 5.09566 16.6415C4.8944 16.776 4.73754 16.9671 4.64491 17.1907C4.55228 17.4144 4.52804 17.6604 4.57526 17.8978C4.62249 18.1352 4.73905 18.3533 4.9102 18.5245C5.08136 18.6956 5.29943 18.8122 5.53683 18.8594C5.77423 18.9066 6.02031 18.8824 6.24393 18.7898C6.46756 18.6971 6.6587 18.5403 6.79318 18.339C6.92765 18.1378 6.99943 17.9011 6.99943 17.6591C6.99943 17.3345 6.87049 17.0232 6.64098 16.7937C6.41146 16.5642 6.10017 16.4352 5.77559 16.4352Z" fill="var(--fill-0, white)"/>
</svg>
