<svg preserveAspectRatio="none" width="100%" height="100%" overflow="visible" style="display: block;" viewBox="0 0 529.357 79.0556" fill="none" xmlns="http://www.w3.org/2000/svg">
<path id="Vector" d="M384.254 70.601C365.656 70.601 352.851 57.4798 352.851 39.7368V39.5651C352.851 22.5016 366.079 8.52677 384.162 8.52677C394.916 8.52677 401.395 11.4412 407.629 16.7549L399.352 26.7899C394.743 22.9297 390.649 20.7047 383.736 20.7047C374.176 20.7047 366.585 29.1941 366.585 39.3934V39.5651C366.585 50.5434 374.094 58.5973 384.675 58.5973C389.455 58.5973 393.72 57.3977 397.046 54.9934V46.4219H383.818V35.0155H409.751V61.0762C403.607 66.3077 395.159 70.5935 384.241 70.5935H384.251V70.6034L384.254 70.601ZM518.18 69.5656L489.254 31.4092V69.5656H476.286V9.55217H488.405L516.389 46.5115V9.55217H529.357V69.5756H518.18V69.5656ZM445.538 60.3768H430.682C435.67 51.8227 442.419 44.503 449.795 39.8364L448.755 39.1196C441.218 34.0424 434.947 27.0238 430.375 18.8604H445.783L445.899 18.6414C447.742 15.2541 449.243 11.6851 450.328 8.02651C450.372 7.88216 450.464 7.40928 450.464 7.40928H425.36C424.565 4.99262 423.896 2.51373 423.381 0H411.48V0.0721764C413.107 15.0102 420.624 29.5027 432.163 39.9459C420.986 50.2621 413.467 64.4535 411.515 78.9734V79.0556H423.344C423.869 76.614 424.565 74.1874 425.404 71.8081H450.471C450.471 71.8081 450.427 71.5716 450.399 71.4721C448.98 67.0867 447.1 63.1718 445.674 60.566C445.647 60.5112 445.548 60.3569 445.548 60.3569V60.3743H445.538V60.3768ZM453.805 43.933L453.461 44.1048C450.704 45.6304 447.053 48.3457 444.604 50.4787L444.279 50.7699C451.138 58.6695 455.945 68.2216 458.196 78.3836L458.34 79.0556H470.411L470.258 78.075C468.289 65.2624 462.595 53.4653 453.793 43.933H453.802H453.805ZM444.824 28.8855C446.93 31.2374 450.382 34.1967 453.012 36.1131L453.428 36.4043C462.746 26.6256 468.584 14.3755 470.307 0.970648L470.434 0.00746655H458.342L458.206 0.696876C456.183 11.0032 451.492 20.6549 444.624 28.6391L444.832 28.893H444.822V28.883L444.824 28.8855ZM70.438 70.4691H58.9708L45.4479 31.0707L31.925 70.4691H20.4577L0 9.84088H14.1173L26.5257 50.6081L39.9743 9.66666H51.2682L64.7168 50.6081L77.1251 9.84088H90.8957L70.438 70.4691ZM155.241 39.7568C155.241 35.4511 154.448 31.4191 152.888 27.661C151.328 23.9028 149.123 20.6424 146.3 17.8549C143.477 15.0674 140.133 12.8773 136.245 11.2346C132.356 9.59199 128.121 8.77068 123.489 8.77068C118.858 8.77068 114.598 9.59199 110.685 11.2346C106.772 12.8773 103.403 15.1172 100.58 17.9545C97.7562 20.7918 95.5272 24.077 93.9421 27.8352C92.3322 31.5934 91.5397 35.6253 91.5397 39.931V40.1052C91.5397 44.4109 92.3322 48.4428 93.8926 52.201C95.4529 55.9591 97.6572 59.2195 100.481 62.007C103.304 64.7945 106.648 66.9847 110.536 68.6273C114.425 70.2699 118.66 71.0913 123.291 71.0913C127.923 71.0913 132.183 70.2699 136.096 68.6273C140.009 66.9847 143.377 64.7447 146.201 61.9074C149.024 59.0702 151.229 55.7849 152.839 52.0267C154.448 48.2686 155.241 44.2367 155.241 39.931V39.7568ZM141.47 40.1052C141.47 42.6936 141.025 45.1078 140.133 47.3726C139.241 49.6375 138.003 51.6285 136.443 53.3458C134.858 55.0631 132.975 56.4071 130.746 57.3777C128.517 58.3484 126.164 58.8462 123.465 58.8462C120.765 58.8462 118.338 58.3484 116.134 57.3529C113.929 56.3573 112.022 54.9885 110.388 53.2712C108.753 51.5539 107.515 49.5379 106.623 47.2482C105.731 44.9584 105.285 42.5194 105.285 39.931V39.7568C105.285 37.1684 105.731 34.7542 106.623 32.4893C107.515 30.2245 108.753 28.2334 110.313 26.5161C111.874 24.7988 113.756 23.4548 115.96 22.4842C118.164 21.5135 120.666 21.0158 123.291 21.0158C125.917 21.0158 128.344 21.5135 130.573 22.5091C132.802 23.5046 134.709 24.8735 136.344 26.5908C137.978 28.3081 139.217 30.324 140.108 32.6138C141 34.9035 141.446 37.3426 141.446 39.931H141.47V40.1052ZM200.169 48.5424C203.983 47.1237 207.079 44.8589 209.456 41.7976C211.809 38.7114 212.998 34.7542 212.998 29.8761V29.7018C212.998 23.4548 211.017 18.6016 207.054 15.0923C203.091 11.5831 197.543 9.84088 190.41 9.84088H163.018V70.0459H176.194V50.7823H186.547L199.376 70.0459H214.806L200.169 48.5424ZM199.574 30.4236V30.5978C199.574 33.1862 198.707 35.252 196.974 36.795C195.24 38.3381 192.739 39.1097 189.494 39.1097H176.145V21.8122H189.246C192.516 21.8122 195.042 22.5091 196.875 23.9526C198.707 25.3712 199.624 27.5365 199.624 30.3987L199.574 30.4236ZM221.171 70.0459V9.84088H234.347V58.0995H264.217V70.0459H221.171ZM323.064 27.9596C321.528 24.3259 319.349 21.1402 316.525 18.4523C313.702 15.7643 310.333 13.6488 306.42 12.1306C302.507 10.6124 298.222 9.84088 293.541 9.84088H270.186V70.0459H293.541C298.222 70.0459 302.507 69.2744 306.42 67.7313C310.333 66.1634 313.702 64.0478 316.525 61.3599C319.349 58.6471 321.528 55.4613 323.064 51.8027V51.8276C324.599 48.1441 325.367 44.2118 325.367 39.9559V39.7816C325.367 35.5506 324.599 31.5934 323.064 27.9596ZM311.596 40.0554C311.596 42.7682 311.151 45.1824 310.259 47.3726C309.367 49.5379 308.154 51.4294 306.569 53.0472C304.984 54.6649 303.101 55.8844 300.872 56.7555C298.643 57.6266 296.191 58.0497 293.516 58.0497H283.337V21.7624H293.516C296.191 21.7624 298.643 22.2104 300.872 23.1064C303.101 23.9775 305.008 25.2468 306.569 26.8397C308.154 28.4574 309.367 30.3738 310.259 32.6138C311.151 34.8537 311.596 37.2928 311.596 39.931V40.0554Z" fill="url(#paint0_linear_3_3123)"/>
<defs>
<linearGradient id="paint0_linear_3_3123" x1="0" y1="39.5278" x2="529.36" y2="39.5278" gradientUnits="userSpaceOnUse">
<stop stop-color="#CFD1FB"/>
<stop offset="0.3" stop-color="white"/>
<stop offset="0.7" stop-color="white"/>
<stop offset="1" stop-color="#CFD1FB"/>
</linearGradient>
</defs>
</svg>
