<svg preserveAspectRatio="none" width="100%" height="100%" overflow="visible" style="display: block;" viewBox="0 0 220 32" fill="none" xmlns="http://www.w3.org/2000/svg">
<g id="WORLD GEN NUEVO LOGO 1" clip-path="url(#clip0_27_861)">
<path id="Vector" d="M159.448 28.4268C151.757 28.4268 146.462 23.1793 146.462 16.0836V16.0149C146.462 9.19092 151.932 3.60212 159.41 3.60212C163.857 3.60212 166.536 4.76765 169.114 6.89269L165.691 10.9059C163.785 9.36212 162.092 8.47229 159.234 8.47229C155.28 8.47229 152.141 11.8674 152.141 15.9463V16.0149C152.141 20.4054 155.246 23.6263 159.622 23.6263C161.599 23.6263 163.362 23.1465 164.738 22.185V18.7571H159.268V14.1955H169.992V24.6176C167.451 26.7098 163.957 28.4238 159.443 28.4238H159.447V28.4277L159.448 28.4268ZM214.831 28.0127L202.869 12.7532V28.0127H197.506V4.01219H202.518L214.09 18.7929V4.01219H219.453V28.0167H214.831V28.0127ZM184.791 24.3379H178.648C180.71 20.917 183.501 17.9897 186.551 16.1234L186.121 15.8368C183.005 13.8063 180.411 10.9994 178.521 7.73474H184.892L184.94 7.64715C185.702 6.2925 186.323 4.86519 186.772 3.40205C186.79 3.34432 186.828 3.15521 186.828 3.15521H176.447C176.118 2.18874 175.841 1.19739 175.628 0.1921H170.707V0.220964C171.38 6.19496 174.488 11.9908 179.26 16.1672C174.638 20.2929 171.528 25.9683 170.721 31.7751V31.8079H175.613C175.83 30.8315 176.118 29.861 176.465 28.9095H186.831C186.831 28.9095 186.813 28.8149 186.801 28.7751C186.214 27.0213 185.437 25.4557 184.847 24.4136C184.836 24.3917 184.795 24.33 184.795 24.33V24.3369H184.791V24.3379ZM188.21 17.7617L188.067 17.8304C186.927 18.4406 185.418 19.5265 184.405 20.3795L184.27 20.4959C187.107 23.6551 189.095 27.4752 190.026 31.5392L190.085 31.8079H195.077L195.013 31.4157C194.199 26.2918 191.845 21.5739 188.204 17.7617H188.209H188.21ZM184.496 11.744C185.366 12.6845 186.794 13.868 187.882 14.6344L188.054 14.7509C191.907 10.8402 194.321 5.94115 195.034 0.58028L195.086 0.195086H190.086L190.03 0.470793C189.193 4.59247 187.253 8.45238 184.413 11.6454L184.499 11.7469H184.495V11.743L184.496 11.744ZM29.6744 28.374H24.9323L19.3401 12.6179L13.748 28.374H9.00587L0.545903 4.12765H6.38389L11.5152 20.4312L17.0766 4.05798H21.747L27.3085 20.4312L32.4398 4.12765H38.1344L29.6744 28.374ZM64.7433 16.0916C64.7433 14.3696 64.4155 12.7572 63.7703 11.2542C63.125 9.75129 62.2135 8.4474 61.0459 7.33263C59.8783 6.21785 58.4956 5.34196 56.8876 4.68504C55.2796 4.02812 53.5282 3.69966 51.6129 3.69966C49.6977 3.69966 47.936 4.02812 46.3178 4.68504C44.6995 5.34196 43.3066 6.23776 42.139 7.37244C40.9714 8.50712 40.0496 9.82096 39.3941 11.3239C38.7284 12.8269 38.4007 14.4393 38.4007 16.1612V16.2309C38.4007 17.9528 38.7284 19.5653 39.3737 21.0682C40.0189 22.5712 40.9304 23.8751 42.098 24.9899C43.2656 26.1046 44.6483 26.9805 46.2563 27.6375C47.8643 28.2944 49.6157 28.6228 51.531 28.6228C53.4463 28.6228 55.2079 28.2944 56.8262 27.6375C58.4444 26.9805 59.8373 26.0847 61.0049 24.95C62.1725 23.8154 63.0841 22.5015 63.7498 20.9986C64.4155 19.4956 64.7433 17.8832 64.7433 16.1612V16.0916ZM59.0487 16.2309C59.0487 17.2661 58.8643 18.2315 58.4956 19.1373C58.1269 20.0431 57.6148 20.8393 56.9696 21.5261C56.3141 22.2129 55.5357 22.7504 54.6139 23.1385C53.6921 23.5267 52.7191 23.7258 51.6027 23.7258C50.4863 23.7258 49.4826 23.5267 48.571 23.1286C47.6595 22.7305 46.8709 22.183 46.1949 21.4962C45.5189 20.8095 45.0068 20.0032 44.6381 19.0875C44.2694 18.1718 44.085 17.1964 44.085 16.1612V16.0916C44.085 15.0564 44.2694 14.091 44.6381 13.1852C45.0068 12.2794 45.5189 11.4832 46.1642 10.7964C46.8094 10.1096 47.5878 9.57213 48.4994 9.18395C49.4109 8.79577 50.4453 8.5967 51.531 8.5967C52.6167 8.5967 53.6204 8.79577 54.5422 9.1939C55.464 9.59204 56.2526 10.1395 56.9286 10.8263C57.6046 11.513 58.1167 12.3193 58.4854 13.235C58.8541 14.1507 59.0385 15.1261 59.0385 16.1612H59.0487V16.2309ZM83.3224 19.6051C84.8997 19.0378 86.18 18.132 87.1632 16.9077C88.1362 15.6735 88.6278 14.091 88.6278 12.1401V12.0704C88.6278 9.57213 87.8085 7.63123 86.1697 6.22781C84.531 4.82439 82.2368 4.12765 79.2871 4.12765H67.9593V28.2048H73.4081V20.5009H77.6893L82.9947 28.2048H89.3755L83.3224 19.6051ZM83.0766 12.3591V12.4287C83.0766 13.4639 82.7182 14.29 82.0012 14.9071C81.2843 15.5242 80.2498 15.8328 78.9081 15.8328H73.3876V8.91521H78.8057C80.1576 8.91521 81.2023 9.1939 81.9602 9.7712C82.7182 10.3385 83.0971 11.2045 83.0971 12.3491L83.0766 12.3591ZM92.0077 28.2048V4.12765H97.4565V23.4272H109.808V28.2048H92.0077ZM134.144 11.3737C133.509 9.9205 132.607 8.64647 131.44 7.57151C130.272 6.49655 128.879 5.65051 127.261 5.04336C125.643 4.43621 123.871 4.12765 121.935 4.12765H112.277V28.2048H121.935C123.871 28.2048 125.643 27.8962 127.261 27.2791C128.879 26.6521 130.272 25.806 131.44 24.7311C132.607 23.6462 133.509 22.3721 134.144 20.909V20.9189C134.779 19.4458 135.096 17.8732 135.096 16.1712V16.1015C135.096 14.4095 134.779 12.8269 134.144 11.3737ZM129.402 16.211C129.402 17.2959 129.217 18.2614 128.849 19.1373C128.48 20.0032 127.978 20.7597 127.322 21.4067C126.667 22.0536 125.889 22.5413 124.967 22.8897C124.045 23.2381 123.031 23.4073 121.925 23.4073H117.715V8.8953H121.925C123.031 8.8953 124.045 9.07446 124.967 9.43278C125.889 9.78115 126.677 10.2888 127.322 10.9258C127.978 11.5728 128.48 12.3392 128.849 13.235C129.217 14.1308 129.402 15.1062 129.402 16.1612V16.211Z" fill="url(#paint0_linear_27_861)"/>
</g>
<defs>
<linearGradient id="paint0_linear_27_861" x1="0.545903" y1="16" x2="219.454" y2="16" gradientUnits="userSpaceOnUse">
<stop stop-color="#CFD1FB"/>
<stop offset="0.3" stop-color="white"/>
<stop offset="0.7" stop-color="white"/>
<stop offset="1" stop-color="#CFD1FB"/>
</linearGradient>
<clipPath id="clip0_27_861">
<rect width="220" height="32" fill="white"/>
</clipPath>
</defs>
</svg>
