<svg preserveAspectRatio="none" width="100%" height="100%" overflow="visible" style="display: block;" viewBox="0 0 145.517 22.0729" fill="none" xmlns="http://www.w3.org/2000/svg">
<g id="Group">
<path id="Vector" fill-rule="evenodd" clip-rule="evenodd" d="M4.81988 15.8301L4.34371 17.1199C4.04938 17.9054 3.90315 18.4584 3.90315 18.7752C3.90315 19.8588 4.58555 20.4156 5.95409 20.4494V21.4673H0V20.4494C0.58491 20.4269 1.10608 20.1569 1.55976 19.6414C2.01344 19.1221 2.45587 18.2766 2.87768 17.1086L9.08485 0H9.79724L17.1892 18.6853C17.3767 19.1483 17.5679 19.5026 17.7648 19.7426C17.9597 19.9863 18.181 20.1569 18.4322 20.2581C18.6778 20.3537 19.0152 20.4156 19.4408 20.4494V21.4673H11.9063V20.4494C12.5774 20.4381 13.0405 20.3537 13.2861 20.1944C13.5335 20.035 13.6573 19.7576 13.6573 19.3658C13.6573 18.9571 13.5073 18.3778 13.2036 17.6448L12.4331 15.8301H4.81988ZM11.7282 14.141L8.43058 5.79661L5.40292 14.141H11.7282ZM21.1617 14.7146H21.9379C22.2959 15.8676 22.7721 16.8818 23.3552 17.7516C23.9419 18.6271 24.5925 19.2908 25.3011 19.7538C26.0098 20.215 26.7484 20.4494 27.5151 20.4494C28.0701 20.4494 28.5612 20.3163 28.9905 20.0444C29.4161 19.7745 29.7498 19.4033 29.9879 18.9346C30.226 18.4678 30.3422 17.9429 30.3422 17.3486C30.3422 16.4037 30.0498 15.5582 29.463 14.8102C29.2005 14.4597 28.8237 14.0997 28.3325 13.7323C27.8413 13.3611 27.0821 12.8193 26.0641 12.1031C25.048 11.3926 24.2888 10.834 23.7976 10.4421C23.3045 10.0485 22.8677 9.61915 22.4834 9.16172C21.6379 8.08376 21.2124 6.83145 21.2124 5.3973C21.2124 4.63991 21.3417 3.92752 21.6042 3.25825C21.8629 2.58898 22.221 2.01719 22.6746 1.53351C23.1302 1.04984 23.672 0.673022 24.2963 0.403063C24.9224 0.13123 25.5936 0 26.3191 0C26.8478 0 27.3146 0.0468677 27.7289 0.142478C28.1376 0.232464 28.5706 0.371193 29.0243 0.545541C29.4798 0.727389 29.851 0.858618 30.1341 0.948604C30.4172 1.04046 30.6422 1.08171 30.8053 1.08171C31.2514 1.08171 31.5552 0.721764 31.7183 0H32.5431V6.87832H31.767C31.4258 5.79661 30.989 4.85175 30.4472 4.04C29.9092 3.22638 29.313 2.60022 28.6568 2.15967C28.0082 1.71911 27.337 1.49602 26.649 1.49602C25.9104 1.49602 25.318 1.73036 24.8774 2.19154C24.435 2.65272 24.2138 3.26387 24.2138 4.03438C24.2138 4.73927 24.4387 5.37667 24.8849 5.95034C25.1343 6.24841 25.6273 6.65148 26.3603 7.15578C27.0896 7.66007 27.7907 8.1325 28.4581 8.57306C29.1255 9.01361 29.7873 9.48604 30.4472 9.99596C31.1052 10.5059 31.6395 11.0139 32.0426 11.5351C32.605 12.2512 32.9968 12.9786 33.2274 13.7229C33.4561 14.4653 33.5686 15.2564 33.5686 16.0944C33.5686 17.2042 33.3361 18.2184 32.8731 19.1371C32.41 20.0557 31.7632 20.7774 30.9421 21.293C30.121 21.8123 29.2211 22.0729 28.2407 22.0729C27.5733 22.0729 26.9734 21.9829 26.4409 21.8066C25.9066 21.6323 25.3011 21.398 24.6262 21.1074C23.9513 20.8205 23.4976 20.6706 23.267 20.6706C22.9427 20.6706 22.6596 20.7981 22.4122 21.053C22.1703 21.308 22.0129 21.6379 21.9379 22.041H21.1617V14.7146ZM35.4077 11.0421C35.4077 9.02861 35.8164 7.1764 36.6337 5.48353C37.4492 3.78504 38.5666 2.4465 39.9764 1.46977C41.3899 0.487425 42.9403 0 44.6331 0C46.3223 0 47.8764 0.487425 49.2862 1.46977C50.6997 2.4465 51.8114 3.78504 52.6325 5.48353C53.4555 7.1764 53.868 9.02861 53.868 11.0421C53.868 13.0536 53.4555 14.9058 52.6325 16.5987C51.8114 18.2878 50.6997 19.6264 49.2862 20.6031C47.8764 21.5854 46.3223 22.0729 44.6331 22.0729C42.9403 22.0729 41.3899 21.5854 39.9764 20.6031C38.5666 19.6264 37.4492 18.2878 36.6337 16.5987C35.8164 14.9058 35.4077 13.0536 35.4077 11.0421ZM39.234 11.0364C39.234 12.5493 39.3521 13.886 39.5883 15.0502C39.8226 16.2125 40.177 17.2155 40.6438 18.0535C41.1106 18.8933 41.6767 19.5251 42.3366 19.9432C42.9984 20.3631 43.7614 20.575 44.6256 20.575C45.4955 20.575 46.2585 20.3631 46.9184 19.9432C47.5764 19.5251 48.1389 18.9027 48.6019 18.0853C49.065 17.268 49.4155 16.265 49.6574 15.0821C49.8936 13.8972 50.0154 12.5493 50.0154 11.0364C50.0154 9.02486 49.8073 7.30388 49.3855 5.8866C48.9694 4.46369 48.3526 3.37636 47.5352 2.62647C46.7178 1.87284 45.7467 1.49602 44.6256 1.49602C43.4877 1.49602 42.511 1.87284 41.703 2.62647C40.8931 3.37636 40.2801 4.46369 39.8639 5.8866C39.4421 7.30388 39.234 9.02486 39.234 11.0364ZM72.4614 15.4476L73.2281 16.1488C71.5521 20.0988 68.9463 22.0729 65.4162 22.0729C63.9314 22.0729 62.5929 21.771 61.3931 21.1711C60.1914 20.5712 59.1697 19.7426 58.3317 18.6909C57.4937 17.6354 56.86 16.4562 56.4363 15.1495C56.007 13.8447 55.7933 12.5062 55.7933 11.1377C55.7933 9.12422 56.2264 7.26638 57.0944 5.56227C57.9605 3.85253 59.149 2.49899 60.6582 1.50164C62.1673 0.498673 63.8096 0 65.598 0C66.3161 0 66.9572 0.0731138 67.5327 0.223091C68.1083 0.371193 68.7288 0.568037 69.3925 0.81175C70.0561 1.05546 70.4723 1.17732 70.6466 1.17732C70.881 1.17732 71.076 1.07234 71.2259 0.864242C71.3778 0.6524 71.4528 0.365568 71.4528 0H72.2533L72.6526 7.0058H71.8352C71.5896 6.1678 71.2522 5.40854 70.8266 4.72427C70.3973 4.04375 69.9343 3.46634 69.4393 3.00329C68.9388 2.53649 68.3839 2.17092 67.7633 1.89908C67.1409 1.62912 66.5242 1.49602 65.9036 1.49602C64.6982 1.49602 63.6146 1.89908 62.651 2.70146C61.693 3.50759 60.9469 4.63991 60.4163 6.10406C59.8877 7.57009 59.6215 9.21046 59.6215 11.0421C59.6215 12.793 59.9008 14.3584 60.4595 15.7401C61.0181 17.1199 61.8055 18.1978 62.8216 18.9721C63.8396 19.7426 64.9944 20.1307 66.2917 20.1307C68.8544 20.1307 70.9091 18.569 72.4614 15.4476ZM83.554 21.4673H74.2986V20.4494H74.9322C75.8921 20.4494 76.5295 20.2206 76.8388 19.7576C77.1463 19.2964 77.3019 18.4359 77.3019 17.1836V4.63429C77.3019 3.76255 77.2344 3.0989 77.105 2.63772C76.9757 2.17654 76.747 1.84659 76.417 1.65537C76.0871 1.46415 75.5921 1.36854 74.9322 1.36854H74.2986V0.380567H83.554V1.36854H83.0422C82.4161 1.36854 81.9418 1.46415 81.6118 1.64975C81.2819 1.83534 81.0494 2.16529 80.9107 2.63772C80.7738 3.11015 80.7026 3.77379 80.7026 4.63429V17.1836C80.7026 18.0441 80.7738 18.7077 80.9107 19.1802C81.0494 19.6526 81.2819 19.9807 81.6118 20.1663C81.9418 20.3537 82.4161 20.4494 83.0422 20.4494H83.554V21.4673ZM89.3038 15.8301L88.8276 17.1199C88.5314 17.9054 88.387 18.4584 88.387 18.7752C88.387 19.8588 89.0694 20.4156 90.438 20.4494V21.4673H84.4839V20.4494C85.0669 20.4269 85.5881 20.1569 86.0437 19.6414C86.4973 19.1221 86.9398 18.2766 87.3597 17.1086L93.5687 0H94.2811L101.673 18.6853C101.861 19.1483 102.052 19.5026 102.249 19.7426C102.444 19.9863 102.665 20.1569 102.914 20.2581C103.162 20.3537 103.499 20.4156 103.925 20.4494V21.4673H96.3902V20.4494C97.0613 20.4381 97.5244 20.3537 97.77 20.1944C98.0156 20.035 98.1412 19.7576 98.1412 19.3658C98.1412 18.9571 97.9912 18.3778 97.6875 17.6448L96.9151 15.8301H89.3038ZM96.2121 14.141L92.9145 5.79661L89.8868 14.141H96.2121ZM104.92 0.380567H115.852C117.432 0.380567 118.819 0.689894 120.015 1.3048C121.213 1.92158 122.201 2.73895 122.972 3.75692C123.748 4.77114 124.322 5.90159 124.706 7.14453C125.09 8.39309 125.281 9.64539 125.281 10.9089C125.281 12.6187 124.923 14.2853 124.205 15.9088C123.489 17.5286 122.372 18.8615 120.85 19.9076C119.324 20.948 117.432 21.4673 115.167 21.4673H104.92V20.4494H105.691C106.317 20.4494 106.797 20.3537 107.125 20.1663C107.455 19.9807 107.693 19.6526 107.833 19.1802C107.976 18.7077 108.047 18.0441 108.047 17.1836V4.63429C108.047 3.41198 107.884 2.56273 107.56 2.08468C107.234 1.6085 106.658 1.36854 105.837 1.36854H104.92V0.380567ZM111.448 2.45775V19.2702C111.757 19.4126 112.241 19.5457 112.895 19.662C113.553 19.7857 114.179 19.8438 114.785 19.8438C115.923 19.8438 116.918 19.6095 117.769 19.1371C118.624 18.6646 119.316 18.0272 119.854 17.2155C120.392 16.4094 120.788 15.4682 121.046 14.3959C121.299 13.3236 121.429 12.1931 121.429 11.0046C121.429 9.17859 121.142 7.59071 120.566 6.24279C119.995 4.88925 119.174 3.84316 118.111 3.11015C117.051 2.37151 115.805 2.00594 114.38 2.00594C113.379 2.00594 112.404 2.15404 111.448 2.45775ZM127.057 11.0421C127.057 9.02861 127.465 7.1764 128.283 5.48353C129.1 3.78504 130.217 2.4465 131.627 1.46977C133.039 0.487425 134.591 0 136.284 0C137.971 0 139.527 0.487425 140.935 1.46977C142.349 2.4465 143.462 3.78504 144.283 5.48353C145.105 7.1764 145.517 9.02861 145.517 11.0421C145.517 13.0536 145.105 14.9058 144.283 16.5987C143.462 18.2878 142.349 19.6264 140.935 20.6031C139.527 21.5854 137.971 22.0729 136.284 22.0729C134.591 22.0729 133.039 21.5854 131.627 20.6031C130.217 19.6264 129.1 18.2878 128.283 16.5987C127.465 14.9058 127.057 13.0536 127.057 11.0421ZM130.885 11.0364C130.885 12.5493 131.001 13.886 131.239 15.0502C131.472 16.2125 131.826 17.2155 132.293 18.0535C132.76 18.8933 133.328 19.5251 133.986 19.9432C134.649 20.3631 135.412 20.575 136.275 20.575C137.146 20.575 137.909 20.3631 138.567 19.9432C139.227 19.5251 139.79 18.9027 140.253 18.0853C140.714 17.268 141.065 16.265 141.306 15.0821C141.545 13.8972 141.664 12.5493 141.664 11.0364C141.664 9.02486 141.456 7.30388 141.036 5.8866C140.618 4.46369 140.002 3.37636 139.184 2.62647C138.367 1.87284 137.396 1.49602 136.275 1.49602C135.137 1.49602 134.162 1.87284 133.352 2.62647C132.544 3.37636 131.931 4.46369 131.515 5.8866C131.093 7.30388 130.885 9.02486 130.885 11.0364Z" fill="var(--fill-0, white)"/>
</g>
</svg>
