<svg width="300" height="81" viewBox="0 0 300 81" fill="none" xmlns="http://www.w3.org/2000/svg">
<path fill-rule="evenodd" clip-rule="evenodd" d="M73.3858 73.2375C72.5047 73.2375 73.3933 71.3741 73.5133 70.8323C73.7139 69.9287 74.027 69.1769 74.2295 68.3089C74.8519 68.4758 74.6681 68.8057 74.8631 69.5068C76.0629 73.8131 76.5072 73.2375 73.3858 73.2375ZM224.364 71.0647H231.833V72.5589H224.364V71.0647ZM90.4701 66.7529C90.4701 65.5493 90.8038 64.5014 92.0186 64.5014C95.7212 64.5014 96.3829 69.6643 96.3829 72.527C96.3829 79.919 90.4701 80.8451 90.4701 77.4556V66.7529ZM110.323 75.4122L109.761 75.3297C109.165 76.5839 109.38 78.2711 107.322 78.9591C104.875 79.7784 104.401 78.1418 104.409 76.0477C104.414 74.6398 104.41 73.23 104.41 71.8221C108.411 70.8904 107.103 73.7418 108.353 74.0755C108.728 73.2919 108.494 70.0618 108.494 68.8657C107.879 68.9163 108.016 68.9726 107.832 69.4731C107.689 69.8593 107.633 70.0205 107.399 70.3073C106.923 70.8904 106.385 70.8473 105.385 70.851C104.086 70.8566 104.395 70.6317 104.409 69.2894C104.437 66.2692 103.968 65.195 105.305 64.9663C106.604 64.7432 108.051 65.2288 108.707 66.5392C109.067 67.2572 109.015 67.9621 109.761 68.1627C109.907 67.5346 110.125 64.8313 109.761 64.2895C108.844 64.1114 104.142 64.222 102.579 64.2183C101.383 64.2164 101.133 64.0552 100.466 64.5014C100.785 64.9344 100.635 64.7263 101.165 64.9288C101.548 65.0731 101.253 64.9213 101.555 65.1031C101.628 65.1463 101.748 65.2606 101.876 65.345V77.1744C101.893 79.754 101.409 78.6779 100.678 79.3435C100.389 79.6059 100.652 79.7428 100.912 79.8271L108.049 79.8702C109.069 79.9846 109.388 80.1571 110.323 79.7071V75.4122ZM86.2445 65.0638C87.0656 65.4575 88.0761 64.7095 88.0761 66.0499V77.8774C88.0761 79.321 87.2831 79.1635 86.8013 79.2797C86.1151 79.4447 86.6176 79.0023 86.2445 79.7071C87.4537 79.9902 89.8308 79.8159 91.1937 79.9696C92.8603 80.1571 94.5701 79.6903 95.5374 79.1429C98.9419 77.2194 99.823 71.8784 98.5126 68.427C97.6315 66.1099 95.23 63.9371 92.8641 63.9371C91.3699 63.9371 88.0836 63.8002 86.7075 64.4001C86.297 64.5782 86.2876 64.5539 86.2445 65.0638ZM153.129 64.0102C152.667 64.2745 152.598 64.5838 152.452 65.0919L149.994 72.7726C149.793 73.35 149.891 73.6275 149.467 73.9368C148.691 73.3669 146.781 64.9944 145.808 64.0102C145.135 63.879 144.394 63.9446 143.693 63.9389C142.688 63.9296 142.42 63.7421 142.006 64.3626C142.373 64.8651 142.72 64.7638 143.414 64.925C143.659 65.9786 143.352 71.0291 143.271 72.5289C143.223 73.4419 143.217 77.6825 142.97 78.2805C142.611 79.1429 141.97 78.5636 141.723 79.1466C141.683 79.2385 141.331 78.9798 141.768 79.3978C142.073 79.6922 142.675 79.5722 143.414 79.5703C144.359 79.5647 144.893 79.6078 145.665 79.4278C145.615 78.8035 145.663 78.9966 145.127 78.841C144.501 78.6592 144.765 78.7829 144.257 78.4436C144.257 76.0196 143.987 69.37 144.398 67.6003C145.065 67.7784 145.345 69.3044 145.607 70.3336L147.936 78.003C148.121 78.558 148.181 79.1035 148.624 79.4278C149.763 78.5936 151.788 68.0277 152.847 67.3191C153.095 67.8346 153.189 77.7256 152.988 78.5842C152.559 78.6836 151.524 78.826 151.387 79.2403C151.218 79.7578 152.517 79.5703 153.129 79.5684C153.878 79.5665 154.632 79.5647 155.382 79.5703C156.822 79.5778 157.009 79.7521 157.071 79.006C155.526 78.9723 155.658 78.0218 155.663 76.4714C155.669 74.9566 155.517 73.933 155.523 72.5289C155.528 71.2203 155.545 69.8874 155.528 68.5807C155.511 67.2403 155.191 66.2073 155.523 64.7844C155.944 64.6851 156.325 64.5407 156.79 64.5032C156.721 63.6671 156.207 63.9296 155.243 63.9389C154.542 63.9446 153.802 63.879 153.129 64.0102ZM194.809 74.4992V78.4436C193.283 79.4634 193.634 78.5748 193.542 79.4278C194.151 79.7221 198.14 79.7221 198.752 79.4278C198.352 77.9374 197.338 80.4552 197.342 76.4714L197.347 65.3525C197.458 64.7207 198.165 64.6382 198.752 64.5032C198.707 63.9821 198.804 64.297 198.611 64.0102C197.728 63.8396 194.119 63.8021 193.542 64.0796C193.635 64.9382 193.57 64.2689 194.809 64.925V74.4992ZM191.851 74.4298C191.078 74.3324 191.039 75.1066 190.887 76.0702C190.769 76.8145 190.555 77.5587 190.188 78.0462C189.14 79.4334 187.768 79.5665 186.6 78.3442C185.764 77.4687 185.33 75.9952 185.031 74.5611C184.566 72.3302 184.457 67.5684 186.212 65.3412C187.096 64.2183 188.885 63.909 189.804 65.2831C190.184 65.8512 190.358 66.4867 190.602 67.1597C190.788 67.6752 191.637 69.1057 191.725 67.4803C191.935 63.6615 191.459 64.2558 190.021 63.7271C189.299 63.5884 188.381 63.5903 187.629 63.6596C185.82 63.8265 184.243 65.2925 183.319 66.8129C181.564 69.6981 181.699 75.2922 184.491 78.1999C184.95 78.6779 185.28 78.9966 185.889 79.336C186.677 79.7728 186.797 79.7559 187.844 79.9171C188.996 80.0915 191.082 79.739 191.735 79.0304C192.134 78.5954 191.993 77.5362 191.991 76.7526C191.991 76.0646 192.147 74.8704 191.851 74.4298ZM121.729 64.0102C120.634 64.5651 120.33 64.7844 119.509 65.6618C118.891 66.3217 118.388 67.2703 118.083 68.1795C117.34 70.388 117.391 72.9882 118.068 75.2041C118.6 76.3983 118.992 77.2944 119.86 78.1999C120.81 79.1879 121.498 79.6809 123.191 79.9377C124.468 80.1327 126.551 79.6303 127.104 79.0304C127.535 78.5598 127.447 74.7673 127.22 74.4298C125.962 74.2705 126.671 76.462 125.537 78.0255C125.165 78.5373 124.747 79.0585 123.966 79.1429C119.755 79.5928 119.063 68.5376 121.581 65.3412C122.44 64.252 124.294 63.8752 125.173 65.2831C125.36 65.5849 126.956 70.0374 127.094 67.4803C127.117 67.0716 127.119 65.135 127.053 64.8107C126.879 63.9371 126.18 63.9802 125.39 63.7271C124.766 63.6071 124.063 63.6465 123.411 63.6502C122.471 63.6559 122.533 63.8321 121.729 64.0102ZM168.055 75.1329L167.493 75.0485C166.934 76.2277 167.06 78.0855 165.046 78.6723C162.498 79.4147 162.133 77.8793 162.14 75.7684C162.146 74.3605 162.14 72.9507 162.14 71.5428C163.025 71.3366 164.221 71.2484 164.847 71.794C165.534 72.392 165.19 73.5581 166.083 73.7962C166.46 73.0126 166.223 69.7806 166.223 68.5864C165.374 68.6576 165.781 69.1506 165.129 70.0243C164.645 70.671 164.163 70.5661 163.115 70.5717C161.651 70.5773 162.185 70.3317 162.138 66.3311C162.125 65.2138 162.002 64.8632 163.036 64.687C164.521 64.432 165.76 65.045 166.413 66.2842C166.775 66.9704 166.743 67.6827 167.491 67.8815C167.714 66.9254 167.781 64.9588 167.491 64.0102C166.567 63.8302 161.882 63.9427 160.311 63.9389C159.21 63.9371 158.957 63.819 158.198 64.2202C158.516 64.6551 158.367 64.447 158.897 64.6495L159.606 65.0657L159.608 76.8951C159.628 80.0333 158.554 78.093 158.198 79.4278C159.203 79.9096 164.249 79.3847 166.175 79.6284L167.191 79.6678C167.536 79.6565 167.646 79.6453 168.055 79.4278V75.1329ZM131.586 69.9943C131.586 64.9157 135.339 61.7549 137.398 67.1391C138.457 69.9099 138.455 73.9612 137.522 76.7751C137.284 77.4912 136.86 78.3705 136.314 78.8073C134.627 80.159 133.058 78.2824 132.486 76.8388C131.44 74.1917 131.586 72.7913 131.586 69.9943ZM129.192 74.4992C129.614 77.4537 133.817 81.998 137.825 79.0491C138.736 78.3799 139.614 77.2213 140.097 76.1115C142.448 70.7085 139.623 62.5573 133.557 63.7271C132.608 64.2108 132.216 64.237 131.194 65.2381C129.908 66.4961 128.919 69.0625 128.904 70.8323C128.892 72.3302 128.84 73.35 129.192 74.4992ZM202.835 72.3883C202.835 70.5811 202.773 68.5432 203.451 66.811C204.906 63.1028 207.383 63.8152 208.691 67.2366C210.052 70.8004 209.728 79.2872 206.354 79.2872C204.014 79.2872 202.835 74.5779 202.835 72.3883ZM204.243 64.0102C202.803 64.5389 201.751 65.9111 201.095 67.2684C197.921 73.8356 202.925 82.5117 208.654 79.3341C212.414 77.2475 214.045 69.2463 209.28 64.8163C208.877 64.4414 208.667 64.4601 208.326 64.1508C207.876 63.9371 207.617 63.8808 207.199 63.7271H204.946C204.64 63.8415 204.584 63.849 204.243 64.0102ZM173.827 65.2063C173.827 64.2633 176.306 64.5801 177.031 65.3825C177.492 65.8924 177.77 66.5317 177.77 67.4597C177.77 71.9121 173.827 71.6234 173.827 70.5567V65.2063ZM171.293 75.2041C171.293 75.9296 171.42 77.6243 171.218 78.2261C171.055 78.7079 170.771 78.9329 169.885 79.006C169.956 79.8646 170.252 79.5684 172.56 79.5684C173.081 79.5684 173.599 79.5684 174.118 79.5778C174.99 79.5928 175.173 79.754 175.235 79.006C174.32 78.9291 174.373 78.8073 173.827 78.4436V71.9646C174.993 71.9646 175.119 71.8502 175.921 73.8149C176.199 74.4955 178.115 79.1204 178.4 79.3622C178.923 79.8028 181.497 79.5778 182.136 79.4278C181.832 78.2917 181.328 79.859 180.021 76.897L178.027 72.5532C177.721 72.0396 177.49 72.0752 177.348 71.5428C178.383 70.9954 179.704 70.5961 180.289 69.1338C180.886 67.6471 180.503 65.9693 179.571 65.0956C178.645 64.222 177.159 63.9296 175.378 63.9389C174.02 63.9464 171.19 63.7852 170.025 64.0102C169.832 64.297 169.93 63.9821 169.885 64.5032C170.801 64.5782 170.749 64.702 171.293 65.0657V75.2041ZM279.704 73.1569C279.704 72.5364 280.12 71.2972 280.296 70.6523C280.665 69.2969 280.613 68.682 281.252 68.5095C281.507 69.6043 282.448 72.4276 282.519 73.2975C281.983 73.4231 279.704 73.6949 279.704 73.1569ZM256.048 75.4084C256.048 76.2089 256.127 77.4912 256.054 78.2318C255.927 79.4822 255.156 78.6592 254.64 79.634C255.257 79.9302 259.372 79.9302 259.991 79.634C259.535 78.9535 258.915 79.2628 258.649 78.5823C258.469 78.1249 258.583 68.6107 258.583 67.3847C258.583 66.7923 258.409 65.6599 258.692 65.2419C259.129 64.597 259.901 65.3694 259.989 64.2951L259.569 64.2145C259.548 64.2108 255.227 64.2127 255.203 64.2145L254.781 64.2858C254.897 65.6937 256.078 63.9071 256.054 66.3929L256.048 75.4084ZM245.348 70.3392V78.6479C244.819 79.0023 244.27 79.1391 243.938 79.634C244.684 79.9921 246.315 79.7765 247.318 79.7746C252.46 79.7728 252.844 80.8245 252.813 78.5111C252.8 77.6412 253.062 75.924 252.668 75.3391C252.267 75.3484 252.501 75.1404 252.185 75.624C252.046 75.8359 252.023 76.029 251.973 76.2614C251.658 77.6862 251.474 78.4886 249.875 78.9591C248.812 79.2722 248.218 78.8317 247.981 77.8456C247.667 76.537 247.623 67.8871 247.839 65.9261C248.041 64.0796 249.174 65.6674 249.288 64.2951L248.866 64.2145C248.28 64.102 246.924 64.2895 246.047 64.2895C244.828 64.2895 244.163 63.8677 243.938 64.7095C244.431 64.8238 244.952 64.925 245.205 65.2719C245.49 65.6862 245.348 69.8049 245.348 70.3392ZM281.535 64.2858L281.393 64.357L278.172 75.4253C277.773 76.7095 277.375 80.0708 275.339 79.0716C275.032 78.9591 275.019 79.0023 274.859 78.5655C274.604 77.8681 274.634 72.2027 274.634 71.4678C274.636 69.9699 274.494 69.0213 274.494 67.5253C274.496 65.3319 274.048 65.1406 275.902 64.7095V64.357H271.959C271.809 64.7807 271.942 64.3533 271.749 64.7769C271.638 65.0207 271.597 65.1519 271.517 65.3919L269.537 71.5784C269.404 72.0771 269.289 72.3752 269.128 72.8588L268.721 74.143C268.054 73.9649 268.234 73.7981 268.013 73.1625L266.749 69.3569C266.429 68.4945 265.356 64.7976 265.06 64.357C264.188 64.1883 261.736 64.1302 261.118 64.4264C261.179 64.9944 261.127 64.8576 261.787 65.0263C263.232 65.3919 262.61 65.9411 262.524 67.5234C262.484 68.2733 262.526 69.1581 262.529 69.9212C262.533 70.8566 262.379 71.136 262.379 72.0265C262.379 73.6406 262.237 74.8366 262.244 76.537C262.259 80.577 260.865 78.0836 260.694 79.634C261.262 79.9059 262.43 79.769 263.23 79.7765C264.059 79.784 265.304 79.9584 264.496 79.141C262.458 78.7473 263.392 77.6375 263.371 74.1449C263.36 72.1933 263.12 69.4862 263.512 67.8065C263.875 67.9996 263.937 67.889 264.217 68.9313L267.312 79.2104C267.505 79.5778 267.465 79.5253 267.876 79.634C268.352 78.7342 270.459 71.6928 270.802 70.4517C270.969 69.8518 271.104 69.49 271.254 68.9313C271.504 67.9958 271.49 67.8346 271.959 67.6659C272.362 68.5076 272.1 77.0338 272.1 78.7885C271.35 79.1485 270.634 78.9404 270.411 79.7746C272.004 79.7746 279.338 80.0127 280.125 79.634C279.634 78.8991 279.927 79.5778 278.436 78.7885C278.436 77.4556 278.44 77.3131 278.736 76.2727C279.107 74.9641 278.856 74.248 280.122 74.1374C283.271 73.8618 282.954 74.6436 283.316 76.0215C283.417 76.4058 283.455 76.477 283.562 76.9026C283.742 77.6168 283.927 77.9468 283.927 78.7885C282.568 79.6997 282.735 78.8879 282.66 79.7746C283.856 79.7746 287.086 80.0109 287.87 79.634C287.634 78.9816 287.493 79.4222 286.946 79.0116C286.407 78.6086 285.931 76.6045 285.759 75.9727C285.556 75.2341 285.296 74.4036 285.073 73.7024C284.917 73.2169 284.505 72.004 284.492 71.5372C284.197 70.9279 284.098 70.3336 283.895 69.6699C283.721 69.1019 283.513 68.382 283.314 67.7165C283.063 66.8747 282.444 64.3964 282.098 63.9333L281.678 63.849C281.586 63.9708 281.561 64.207 281.533 64.2858H281.535ZM28.7489 58.9447C28.1865 59.5146 27.6991 60.0058 27.1161 60.6226L25.5094 62.3961C26.638 62.3961 26.5312 62.2836 27.1986 61.8318L29.9938 60.122C30.6049 59.7377 30.7193 59.5615 30.7193 58.5941C30.4887 58.4723 30.2487 58.3598 30.0163 58.2417C29.2645 58.3879 29.3057 58.3936 28.7489 58.9447ZM21.2857 74.4355C20.8752 74.4317 20.8995 74.4223 20.6614 74.861C20.3109 75.5022 20.4533 76.5145 19.9209 77.645C18.9423 79.7203 16.4621 80.2621 15.0054 76.5614C14.0943 74.2461 13.89 68.9988 14.9923 66.5223C15.2154 66.0218 15.5903 65.4368 15.9709 65.1069C17.8006 63.5321 19.2723 64.8294 19.9659 66.9535C20.2265 67.7502 20.2921 68.2508 21.0045 68.3089C21.3157 67.6603 21.2314 65.9824 21.1357 65.0806C21.0045 63.834 20.069 64.0627 19.0323 63.7327C16.2971 63.2041 13.8281 64.8144 12.647 67.1335C10.9673 70.4273 11.2729 75.5472 14.07 78.3424C15.0148 79.2872 15.9522 79.9715 17.3376 80.0034C18.1193 80.0202 19.0267 80.0277 19.6022 79.8628C21.85 79.2216 21.4263 78.6104 21.4263 76.7582C21.4263 76.0702 21.5819 74.8741 21.2857 74.4355ZM52.3459 70.3617C52.7246 69.0194 52.6009 68.4832 53.2496 68.3089C53.4464 69.1544 53.6451 69.7224 53.8738 70.641C54.2244 72.0452 55.0043 73.2375 54.0951 73.2375C51.9073 73.2375 51.701 73.4494 51.701 72.6751L52.3459 70.3617ZM25.3688 72.9563C25.3688 72.2514 25.7682 71.1903 25.9331 70.5642C26.1037 69.9137 26.4412 68.9613 26.4955 68.3089H26.9192L28.1847 73.0969C27.6485 73.2225 25.3688 73.4944 25.3688 72.9563ZM63.6692 64.9307C64.4097 64.7582 64.4491 64.5838 65.2571 64.7413C68.6916 65.4087 67.9454 70.0449 66.0088 70.9316C65.1596 71.3216 65.0659 71.2672 64.2316 71.2672C63.133 71.2672 63.5286 67.5346 63.5286 65.9168C63.5286 65.4312 63.6317 65.3712 63.6692 64.9307ZM24.1015 74.5048C23.6254 74.9304 23.4379 77.8268 22.6018 78.6386C21.8575 79.3603 21.6475 78.6236 21.5669 79.574H25.6519V79.1522C23.8766 78.7379 23.5654 78.7942 24.5083 75.4759C24.8514 74.2724 24.3809 73.9462 26.6343 73.933C28.7921 73.9218 28.584 74.2255 29.0658 76.3008C29.182 76.7976 29.5307 77.5962 29.467 78.3086C29.3676 79.4334 28.7733 78.6311 28.1847 79.4334C28.8333 79.7446 36.2066 79.7071 36.7746 79.4334C36.4634 78.2692 35.2973 79.6359 35.2205 77.6093C35.1698 76.2746 35.3742 75.489 35.3686 74.2255L35.3629 69.01C35.3498 68.0633 35.213 67.9921 35.7885 67.6059C35.8822 68.0052 35.9403 68.0052 36.0678 68.3127C36.1859 68.5995 36.2009 68.6951 36.2965 69.07L39.2961 78.8842C39.4817 79.3453 39.4704 79.1241 39.5904 79.574C40.509 78.9591 42.2562 71.9365 42.7231 70.4554L43.4542 68.0896C43.6604 67.4972 43.3155 67.6359 43.9566 67.4653C44.1516 68.3014 44.0972 69.115 44.0972 70.1405C44.0953 72.2402 44.3522 73.2094 44.2059 75.8677L44.2416 77.0338C44.3147 80.0184 42.8074 78.0724 42.4062 79.574H49.8695C50.8837 79.574 51.7067 79.7409 52.1229 79.3622C51.5342 78.7792 51.9691 79.1579 51.178 78.9685C50.7074 78.856 50.8049 78.8373 50.4337 78.5879C50.4337 76.0833 50.7018 76.5576 51.2774 74.083C52.0741 74.083 52.6515 73.873 53.6695 73.9443C55.1824 74.0511 55.0155 74.6342 55.6136 76.9288C55.8573 77.8662 56.0223 77.8474 55.7842 78.871C54.5675 79.1541 54.8731 79.0885 54.6575 79.4334C54.963 79.7803 64.6234 79.574 65.0771 79.574C64.9853 78.4698 64.4397 79.4372 63.7723 78.6273C63.3168 78.0762 63.5286 73.0144 63.5286 72.1108C65.1784 71.7265 65.3677 73.0594 66.3051 75.2491C66.9031 76.6439 67.4692 78.3105 68.3166 79.574C69.0628 79.574 70.3732 79.6772 70.7987 79.649C71.6555 79.589 72.471 79.574 73.3858 79.574V79.1522C71.1643 78.6348 71.4793 78.6779 72.1748 75.5472C72.4354 74.3698 72.2066 73.9443 74.2257 73.9349C76.7472 73.9237 76.106 74.2555 76.7116 76.1058C76.8503 76.5314 76.8334 76.5483 76.944 77.0019C77.0228 77.3319 77.1671 77.6131 77.1971 78.0405C77.2759 79.1541 76.7491 78.9591 75.9204 79.1522V79.574H81.1284V79.1522C79.7842 78.8392 79.6286 77.9993 79.0737 75.8565L75.6786 64.3251C75.5193 63.7833 75.5361 63.6577 74.9344 63.7327C74.7 64.0833 74.4713 64.9438 74.3419 65.465C74.1882 66.0761 73.9932 66.6667 73.8076 67.3247C73.6802 67.7671 73.6296 67.7802 73.4946 68.2789C73.4308 68.517 73.3333 68.9257 73.2602 69.1713L70.5681 78.1661C70.0526 77.8212 69.1415 75.5322 68.8397 74.8254C67.4599 71.5953 67.9061 72.9694 67.0493 71.689C68.3879 70.9804 69.5446 70.6054 70.1313 69.1394C70.78 67.5234 70.2607 66.0161 69.2727 65.1013C67.5405 63.4946 63.7498 64.0889 62.1207 64.0871C60.7728 64.0852 61.0146 63.9783 59.7267 64.0852C59.7829 64.7601 59.8111 64.5182 60.3828 64.6963C60.784 64.8201 60.889 64.8351 61.0371 65.3094C61.2096 65.8587 61.1833 76.3083 61.1383 77.465C61.1009 78.4024 61.0052 78.6817 60.2366 78.9704C59.6011 79.2085 59.0312 79.0716 58.6843 78.5036C57.9026 77.2232 54.6856 64.612 54.0951 63.7327H53.6714C53.2814 64.1283 53.4239 64.1114 53.2777 64.6757C52.3684 68.1477 50.7449 72.8794 49.8976 76.2239C49.2152 78.9291 49.0315 79.0116 47.3348 79.0116C46.9805 78.4811 46.8043 78.5373 46.7668 77.6075L46.4912 64.9307C47.9722 64.5857 47.7773 64.6813 47.8991 64.2258C47.1736 63.879 45.1246 64.0852 44.0972 64.0852C43.1974 65.4275 42.8243 67.5196 42.2881 69.0344L41.0677 72.8851C40.884 73.47 40.9814 73.6443 40.5765 73.9424C40.1097 73.6293 40.1547 73.4887 39.9578 72.8701L37.8807 66.4998C37.7401 66.1024 37.6145 65.7068 37.4626 65.2269C37.3408 64.8388 37.1495 64.4845 37.0558 64.0852C36.0003 64.0852 33.8594 63.8677 33.1133 64.2258C33.2108 65.1125 33.2858 64.477 34.5212 65.0713C34.7986 66.258 34.3637 71.0385 34.3806 72.6751C34.3956 74.0211 34.2325 75.1179 34.2419 76.6195C34.2531 78.2449 34.2287 78.8823 32.6915 79.0116C32.0147 78.0012 32.3165 78.7979 31.8628 77.3056L27.7628 63.7327H27.2004L24.1015 74.5048Z" fill="white"/>
<mask id="mask0_3_2529" style="mask-type:luminance" maskUnits="userSpaceOnUse" x="153" y="12" width="147" height="24">
<path d="M153.841 12.6898H299.45V35.2464H153.841V12.6898Z" fill="white"/>
</mask>
<g mask="url(#mask0_3_2529)">
<path fill-rule="evenodd" clip-rule="evenodd" d="M158.791 28.9512L158.315 30.241C158.02 31.0265 157.874 31.5795 157.874 31.8963C157.874 32.9799 158.557 33.5367 159.925 33.5705V34.5884H153.971V33.5705C154.556 33.548 155.077 33.278 155.531 32.7624C155.985 32.2432 156.427 31.3977 156.849 30.2297L163.056 13.1211H163.768L171.16 31.8063C171.348 32.2694 171.539 32.6237 171.736 32.8637C171.931 33.1074 172.152 33.278 172.403 33.3792C172.649 33.4748 172.986 33.5367 173.412 33.5705V34.5884H165.877V33.5705C166.549 33.5592 167.012 33.4748 167.257 33.3155C167.505 33.1561 167.628 32.8787 167.628 32.4869C167.628 32.0782 167.478 31.4989 167.175 30.7659L166.404 28.9512H158.791ZM165.699 27.262L162.402 18.9177L159.374 27.262H165.699ZM175.133 27.8357H175.909C176.267 28.9887 176.743 30.0029 177.326 30.8727C177.913 31.7482 178.564 32.4119 179.272 32.8749C179.981 33.3361 180.719 33.5705 181.486 33.5705C182.041 33.5705 182.532 33.4373 182.962 33.1655C183.387 32.8956 183.721 32.5244 183.959 32.0557C184.197 31.5889 184.313 31.064 184.313 30.4697C184.313 29.5248 184.021 28.6793 183.434 27.9313C183.172 27.5807 182.795 27.2208 182.304 26.8534C181.812 26.4822 181.053 25.9404 180.035 25.2242C179.019 24.5137 178.26 23.9551 177.769 23.5632C177.276 23.1695 176.839 22.7402 176.454 22.2828C175.609 21.2049 175.183 19.9525 175.183 18.5184C175.183 17.761 175.313 17.0486 175.575 16.3793C175.834 15.7101 176.192 15.1383 176.646 14.6546C177.101 14.1709 177.643 13.7941 178.267 13.5242C178.893 13.2523 179.565 13.1211 180.29 13.1211C180.819 13.1211 181.286 13.168 181.7 13.2636C182.109 13.3536 182.542 13.4923 182.995 13.6666C183.451 13.8485 183.822 13.9797 184.105 14.0697C184.388 14.1616 184.613 14.2028 184.776 14.2028C185.223 14.2028 185.526 13.8429 185.689 13.1211H186.514V19.9994H185.738C185.397 18.9177 184.96 17.9728 184.418 17.1611C183.88 16.3475 183.284 15.7213 182.628 15.2808C181.979 14.8402 181.308 14.6171 180.62 14.6171C179.881 14.6171 179.289 14.8515 178.848 15.3126C178.406 15.7738 178.185 16.385 178.185 17.1555C178.185 17.8604 178.41 18.4978 178.856 19.0714C179.105 19.3695 179.598 19.7726 180.331 20.2769C181.061 20.7812 181.762 21.2536 182.429 21.6942C183.097 22.1347 183.758 22.6071 184.418 23.1171C185.076 23.627 185.611 24.135 186.014 24.6562C186.576 25.3723 186.968 26.0997 187.198 26.844C187.427 27.5864 187.54 28.3775 187.54 29.2155C187.54 30.3253 187.307 31.3395 186.844 32.2582C186.381 33.1768 185.734 33.8985 184.913 34.4141C184.092 34.9334 183.192 35.194 182.212 35.194C181.544 35.194 180.944 35.104 180.412 34.9277C179.878 34.7534 179.272 34.5191 178.597 34.2285C177.922 33.9416 177.469 33.7917 177.238 33.7917C176.914 33.7917 176.631 33.9191 176.383 34.1741C176.141 34.4291 175.984 34.759 175.909 35.1621H175.133V27.8357ZM189.379 24.1631C189.379 22.1497 189.787 20.2975 190.605 18.6046C191.42 16.9061 192.538 15.5676 193.947 14.5909C195.361 13.6085 196.911 13.1211 198.604 13.1211C200.293 13.1211 201.847 13.6085 203.257 14.5909C204.671 15.5676 205.782 16.9061 206.604 18.6046C207.427 20.2975 207.839 22.1497 207.839 24.1631C207.839 26.1747 207.427 28.0269 206.604 29.7198C205.782 31.4089 204.671 32.7475 203.257 33.7242C201.847 34.7065 200.293 35.194 198.604 35.194C196.911 35.194 195.361 34.7065 193.947 33.7242C192.538 32.7475 191.42 31.4089 190.605 29.7198C189.787 28.0269 189.379 26.1747 189.379 24.1631ZM193.205 24.1575C193.205 25.6704 193.323 27.0071 193.559 28.1713C193.794 29.3336 194.148 30.3366 194.615 31.1746C195.082 32.0144 195.648 32.6462 196.308 33.0643C196.969 33.4842 197.732 33.6961 198.597 33.6961C199.467 33.6961 200.23 33.4842 200.889 33.0643C201.548 32.6462 202.11 32.0238 202.573 31.2064C203.036 30.3891 203.387 29.3861 203.628 28.2032C203.865 27.0183 203.987 25.6704 203.987 24.1575C203.987 22.146 203.778 20.425 203.357 19.0077C202.94 17.5848 202.324 16.4974 201.506 15.7476C200.689 14.9939 199.718 14.6171 198.597 14.6171C197.459 14.6171 196.482 14.9939 195.674 15.7476C194.864 16.4974 194.251 17.5848 193.835 19.0077C193.413 20.425 193.205 22.146 193.205 24.1575ZM226.432 28.5687L227.199 29.2699C225.523 33.2199 222.917 35.194 219.387 35.194C217.902 35.194 216.564 34.8921 215.364 34.2922C214.162 33.6923 213.141 32.8637 212.303 31.812C211.465 30.7565 210.831 29.5773 210.407 28.2706C209.978 26.9658 209.764 25.6273 209.764 24.2588C209.764 22.2453 210.197 20.3875 211.065 18.6834C211.932 16.9736 213.12 15.6201 214.629 14.6227C216.138 13.6198 217.781 13.1211 219.569 13.1211C220.287 13.1211 220.928 13.1942 221.504 13.3442C222.079 13.4923 222.7 13.6891 223.364 13.9328C224.027 14.1766 224.443 14.2984 224.618 14.2984C224.852 14.2984 225.047 14.1934 225.197 13.9853C225.349 13.7735 225.424 13.4867 225.424 13.1211H226.224L226.624 20.1269H225.806C225.561 19.2889 225.223 18.5296 224.798 17.8454C224.368 17.1648 223.905 16.5874 223.41 16.1244C222.91 15.6576 222.355 15.292 221.734 15.0202C221.112 14.7502 220.495 14.6171 219.875 14.6171C218.669 14.6171 217.586 15.0202 216.622 15.8226C215.664 16.6287 214.918 17.761 214.387 19.2252C213.859 20.6912 213.593 22.3316 213.593 24.1631C213.593 25.9141 213.872 27.4795 214.431 28.8612C214.989 30.241 215.777 31.3189 216.793 32.0932C217.811 32.8637 218.965 33.2517 220.263 33.2517C222.825 33.2517 224.88 31.6901 226.432 28.5687ZM237.525 34.5884H228.27V33.5705H228.903C229.863 33.5705 230.501 33.3417 230.81 32.8787C231.117 32.4175 231.273 31.557 231.273 30.3047V17.7554C231.273 16.8836 231.205 16.22 231.076 15.7588C230.947 15.2976 230.718 14.9677 230.388 14.7765C230.058 14.5852 229.563 14.4896 228.903 14.4896H228.27V13.5017H237.525V14.4896H237.013C236.387 14.4896 235.913 14.5852 235.583 14.7708C235.253 14.9564 235.02 15.2864 234.882 15.7588C234.745 16.2312 234.674 16.8949 234.674 17.7554V30.3047C234.674 31.1652 234.745 31.8288 234.882 32.3013C235.02 32.7737 235.253 33.1018 235.583 33.2874C235.913 33.4748 236.387 33.5705 237.013 33.5705H237.525V34.5884ZM243.275 28.9512L242.799 30.241C242.502 31.0265 242.358 31.5795 242.358 31.8963C242.358 32.9799 243.041 33.5367 244.409 33.5705V34.5884H238.455V33.5705C239.038 33.548 239.559 33.278 240.015 32.7624C240.468 32.2432 240.911 31.3977 241.331 30.2297L247.54 13.1211H248.252L255.644 31.8063C255.832 32.2694 256.023 32.6237 256.22 32.8637C256.415 33.1074 256.636 33.278 256.885 33.3792C257.133 33.4748 257.47 33.5367 257.896 33.5705V34.5884H250.361V33.5705C251.032 33.5592 251.495 33.4748 251.741 33.3155C251.987 33.1561 252.112 32.8787 252.112 32.4869C252.112 32.0782 251.962 31.4989 251.659 30.7659L250.886 28.9512H243.275ZM250.183 27.262L246.886 18.9177L243.858 27.262H250.183ZM258.891 13.5017H269.823C271.403 13.5017 272.79 13.811 273.986 14.4259C275.184 15.0427 276.172 15.86 276.943 16.878C277.719 17.8922 278.293 19.0227 278.677 20.2656C279.061 21.5142 279.252 22.7665 279.252 24.03C279.252 25.7398 278.894 27.4064 278.176 29.0299C277.46 30.6496 276.343 31.9826 274.821 33.0287C273.295 34.0691 271.403 34.5884 269.138 34.5884H258.891V33.5705H259.662C260.288 33.5705 260.768 33.4748 261.096 33.2874C261.426 33.1018 261.664 32.7737 261.805 32.3013C261.947 31.8288 262.018 31.1652 262.018 30.3047V17.7554C262.018 16.5331 261.855 15.6838 261.531 15.2058C261.205 14.7296 260.629 14.4896 259.808 14.4896H258.891V13.5017ZM265.419 15.5788V32.3913C265.728 32.5337 266.212 32.6668 266.866 32.7831C267.524 32.9068 268.15 32.9649 268.756 32.9649C269.894 32.9649 270.889 32.7306 271.74 32.2582C272.595 31.7857 273.287 31.1483 273.825 30.3366C274.363 29.5304 274.759 28.5893 275.017 27.517C275.271 26.4447 275.4 25.3142 275.4 24.1257C275.4 22.2997 275.113 20.7118 274.538 19.3639C273.966 18.0103 273.145 16.9643 272.082 16.2312C271.022 15.4926 269.776 15.127 268.351 15.127C267.35 15.127 266.375 15.2751 265.419 15.5788ZM281.028 24.1631C281.028 22.1497 281.436 20.2975 282.254 18.6046C283.071 16.9061 284.189 15.5676 285.598 14.5909C287.01 13.6085 288.562 13.1211 290.255 13.1211C291.942 13.1211 293.498 13.6085 294.906 14.5909C296.32 15.5676 297.433 16.9061 298.255 18.6046C299.076 20.2975 299.488 22.1497 299.488 24.1631C299.488 26.1747 299.076 28.0269 298.255 29.7198C297.433 31.4089 296.32 32.7475 294.906 33.7242C293.498 34.7065 291.942 35.194 290.255 35.194C288.562 35.194 287.01 34.7065 285.598 33.7242C284.189 32.7475 283.071 31.4089 282.254 29.7198C281.436 28.0269 281.028 26.1747 281.028 24.1631ZM284.856 24.1575C284.856 25.6704 284.972 27.0071 285.21 28.1713C285.443 29.3336 285.797 30.3366 286.264 31.1746C286.731 32.0144 287.299 32.6462 287.957 33.0643C288.62 33.4842 289.383 33.6961 290.246 33.6961C291.117 33.6961 291.881 33.4842 292.539 33.0643C293.198 32.6462 293.761 32.0238 294.224 31.2064C294.685 30.3891 295.036 29.3861 295.277 28.2032C295.516 27.0183 295.636 25.6704 295.636 24.1575C295.636 22.146 295.427 20.425 295.008 19.0077C294.589 17.5848 293.973 16.4974 293.155 15.7476C292.338 14.9939 291.367 14.6171 290.246 14.6171C289.108 14.6171 288.133 14.9939 287.323 15.7476C286.515 16.4974 285.902 17.5848 285.486 19.0077C285.064 20.425 284.856 22.146 284.856 24.1575Z" fill="white"/>
</g>
<path fill-rule="evenodd" clip-rule="evenodd" d="M98.1828 40.4525C98.1828 42.7453 98.1772 45.0381 98.1828 47.329C98.1847 48.4688 98.0816 49.6067 97.7066 50.3923C97.1198 51.6221 96.4056 51.8414 96.2612 52.3851H129.935C133.043 52.3851 132.79 52.5838 132.904 51.8152L133.879 46.4179C133.943 46.1423 134.052 45.6436 134.082 45.3568C133.658 45.3043 133.139 45.6117 132.724 45.7711C131.511 46.236 129.684 46.6672 128.375 46.8809C127.768 46.9803 127.417 47.0796 126.804 47.1303L122.241 47.5164C120.091 47.6983 115.841 47.5258 113.25 47.5314C111.9 47.5352 109.354 47.2277 108.194 47.2277C108.194 39.2733 108.194 31.3189 108.194 23.3627C108.194 21.3548 108.078 6.70584 108.207 5.47791C108.509 2.60772 110.07 2.0828 110.217 1.67224L96.0587 1.62163C96.3756 2.09593 96.8967 2.45587 97.3036 3.00516C98.5184 4.64928 98.1828 7.46135 98.1828 9.71101V40.4525ZM50.3514 40.4019C50.432 40.4806 50.3495 40.3813 50.4583 40.5575C50.462 40.5669 50.5445 40.7169 50.5614 40.745L53.8627 45.5367C57.6047 49.423 61.774 51.9445 67.0288 53.0993C71.1851 54.0142 71.4475 53.9017 75.6319 53.9017C77.9415 53.9017 79.4038 53.8342 81.7566 53.4537L84.518 52.9812C85.7085 52.76 89.1523 51.7683 90.1665 51.144C90.6877 50.8234 91.2314 48.6356 91.4188 48.0507C92.0356 46.1254 92.2156 44.4363 92.2156 42.3741L92.1144 40.4019C91.8463 40.4282 91.8781 40.49 91.6101 40.8575C91.4395 41.0881 91.3382 41.163 91.147 41.4049C89.5048 43.4821 87.6525 45.1018 85.4797 46.5603C81.5054 49.2318 76.6649 49.7005 72.0549 48.3769C70.2327 47.8558 68.3168 46.8528 66.832 45.713L65.156 44.2544C63.33 42.2972 62.0327 40.4713 60.9398 37.9535C60.1674 36.1782 59.395 33.8104 59.0894 31.917C58.0077 25.2242 58.3864 16.3362 62.4845 10.9239C62.6308 10.7308 62.7545 10.5546 62.9176 10.3447C63.5306 9.56103 64.5992 8.55243 65.3885 7.9619C67.7225 6.21654 70.8214 5.06547 74.0103 4.85363C77.8553 4.59867 77.6997 4.68678 81.0667 5.38792L82.6114 5.86597C84.7411 6.71522 85.7572 7.26263 87.6638 8.5993C89.0267 9.55353 90.3577 11.1002 90.6989 11.3289C90.6989 10.8246 90.654 10.5509 90.5921 10.1216L89.7897 2.02656C89.5479 1.86534 89.6229 1.85034 89.3604 1.74536C88.693 1.48102 86.3927 1.08171 85.5641 0.892363C84.6418 0.68052 81.1323 0.299954 80.9917 0.256836C79.9175 0.0487424 78.7664 0.213717 77.6697 0.0899862C76.9067 0.00374918 74.9289 0.114357 74.6195 0.0543666C74.209 0.185597 68.1649 0.0562414 62.3252 3.07828C61.3616 3.57695 59.1138 4.908 58.2683 5.59414C58.0208 5.79473 57.944 5.89222 57.6609 6.10031L56.448 7.11266C55.6306 7.79505 54.5676 9.09048 53.8665 9.89098C50.8482 13.3442 48.5517 19.2083 48.0061 23.7488C47.5787 27.3145 47.4568 30.3985 48.203 33.8029L48.606 35.6251C48.8929 37.0049 49.8433 39.1609 50.3514 40.4019ZM44.3842 40.4019C44.2211 40.4582 44.3786 40.3644 44.2173 40.4975C44.1967 40.5144 44.1405 40.5725 44.1217 40.5931C44.1049 40.6119 43.938 40.8331 43.9005 40.88C42.457 42.6797 41.4353 43.8964 39.4856 45.3643C39.2325 45.5555 39.1481 45.653 38.925 45.8142C38.7432 45.9436 38.5876 46.0298 38.3776 46.176L37.2097 46.9315C31.8386 50.1692 24.7203 49.6142 19.6942 46.131C16.9759 44.2488 14.4844 40.9268 13.2527 37.9104C10.9431 32.26 10.3919 27.2377 11.1849 21.008C11.3986 19.3377 11.483 19.2739 11.7961 17.6729C11.9011 17.1349 12.0698 16.6474 12.2273 16.1825C13.0221 13.8391 13.9782 11.6363 15.6898 9.83849L16.7003 8.82614C17.8833 7.78193 18.3782 7.30388 20.1292 6.49025C23.7399 4.81239 27.7705 4.36808 31.8592 5.04672C35.2937 5.61664 39.0694 7.57009 41.6302 9.93785C41.9714 10.2528 42.7363 11.2408 43.07 11.3289C43.0606 10.9314 42.9238 10.3653 42.8844 9.99784L42.4626 5.86972C42.4251 4.96611 42.1983 4.10374 42.1589 3.13827C42.0933 1.54851 42.0408 1.86909 40.7566 1.50727L32.9559 0.208093C32.5922 0.19122 30.397 0.108733 30.2264 0.0543666C30.0164 0.0937355 28.6947 0 28.1004 0L25.9764 0.101234C24.321 0.119982 20.1985 0.886738 18.4963 1.52039C15.5717 2.61147 15.1499 2.68834 12.3585 4.38308C9.72639 5.97846 7.30238 8.40246 5.46517 10.8377C3.55484 13.3686 1.93696 16.7712 1.10271 19.9244C0.785886 21.1205 0.538424 22.2435 0.33783 23.6082C-0.102728 26.6172 -0.179591 30.959 0.515928 33.861C0.935863 35.6139 1.30706 37.3405 2.04569 39.0034C3.11053 41.3955 4.65154 43.9882 6.43627 45.8405C6.81309 46.2323 7.15616 46.5753 7.54797 46.9522C7.79731 47.1921 7.90979 47.2277 8.15538 47.4565C9.22959 48.4538 10.7537 49.5224 12.0285 50.2573C15.7573 52.4057 18.8525 53.1687 23.0031 53.7442C28.0011 54.436 35.8767 53.6336 40.7322 51.8676C41.0078 51.7683 41.2478 51.6746 41.5421 51.5658C41.8889 51.4402 41.9639 51.384 42.3089 51.2209C42.7438 51.0147 42.6819 51.0934 42.8582 50.6585C43.9249 48.0207 45.1584 42.9365 44.3842 40.4019Z" fill="white"/>
<path fill-rule="evenodd" clip-rule="evenodd" d="M142.827 53.9693H143.483V1.3855H142.827V53.9693Z" fill="white"/>
</svg>
