<svg preserveAspectRatio="none" width="100%" height="100%" overflow="visible" style="display: block;" viewBox="0 0 40 40" fill="none" xmlns="http://www.w3.org/2000/svg">
<g id="arrow_downward">
<mask id="mask0_27_842" style="mask-type:alpha" maskUnits="userSpaceOnUse" x="0" y="0" width="40" height="40">
<rect id="Bounding box" width="40" height="40" fill="var(--fill-0, #D9D9D9)"/>
</mask>
<g mask="url(#mask0_27_842)">
<path id="arrow_downward_2" d="M18.3333 26.9583V8.33333C18.3333 7.86111 18.4931 7.46528 18.8125 7.14583C19.1319 6.82639 19.5278 6.66667 20 6.66667C20.4722 6.66667 20.8681 6.82639 21.1875 7.14583C21.5069 7.46528 21.6667 7.86111 21.6667 8.33333V26.9583L29.8333 18.7917C30.1667 18.4583 30.5556 18.2986 31 18.3125C31.4444 18.3264 31.8333 18.5 32.1667 18.8333C32.4722 19.1667 32.6319 19.5556 32.6458 20C32.6597 20.4444 32.5 20.8333 32.1667 21.1667L21.1667 32.1667C21 32.3333 20.8194 32.4514 20.625 32.5208C20.4306 32.5903 20.2222 32.625 20 32.625C19.7778 32.625 19.5694 32.5903 19.375 32.5208C19.1806 32.4514 19 32.3333 18.8333 32.1667L7.83333 21.1667C7.52778 20.8611 7.375 20.4792 7.375 20.0208C7.375 19.5625 7.52778 19.1667 7.83333 18.8333C8.16667 18.5 8.5625 18.3333 9.02083 18.3333C9.47917 18.3333 9.875 18.5 10.2083 18.8333L18.3333 26.9583Z" fill="var(--fill-0, white)"/>
</g>
</g>
</svg>
